<?xml version="1.0" encoding="utf-8"?>
<!-- Generator: Adobe Illustrator 16.0.0, SVG Export Plug-In . SVG Version: 6.00 Build 0)  -->
<!DOCTYPE svg PUBLIC "-//W3C//DTD SVG 1.1//EN" "http://www.w3.org/Graphics/SVG/1.1/DTD/svg11.dtd">
<svg version="1.1" id="图层_1" xmlns="http://www.w3.org/2000/svg" xmlns:xlink="http://www.w3.org/1999/xlink" x="0px" y="0px"
	 width="1780px" height="652px" viewBox="0 0 1780 652" enable-background="new 0 0 1780 652" xml:space="preserve">
<g>
	<g>
		<linearGradient id="SVGID_1_" gradientUnits="userSpaceOnUse" x1="233.4092" y1="306" x2="233.4092" y2="245.1816">
			<stop  offset="0" style="stop-color:#CC3300"/>
			<stop  offset="0.1394" style="stop-color:#F76100"/>
		</linearGradient>
		<path fill="url(#SVGID_1_)" d="M233.409,306C216.642,306,203,292.358,203,275.591s13.642-30.409,30.409-30.409
			s30.409,13.642,30.409,30.409S250.177,306,233.409,306z"/>
		<path fill="#F7F9F9" d="M233.409,247.182c15.69,0,28.409,12.719,28.409,28.409S249.099,304,233.409,304S205,291.281,205,275.591
			S217.719,247.182,233.409,247.182 M233.409,243.182c-17.871,0-32.409,14.539-32.409,32.409S215.539,308,233.409,308
			s32.409-14.539,32.409-32.409S251.28,243.182,233.409,243.182L233.409,243.182z"/>
	</g>
	<g>
		<linearGradient id="SVGID_2_" gradientUnits="userSpaceOnUse" x1="307.4092" y1="306" x2="307.4092" y2="245.1816">
			<stop  offset="0" style="stop-color:#CC3300"/>
			<stop  offset="0.1394" style="stop-color:#F76100"/>
		</linearGradient>
		<path fill="url(#SVGID_2_)" d="M307.409,306C290.642,306,277,292.358,277,275.591s13.642-30.409,30.409-30.409
			s30.409,13.642,30.409,30.409S324.177,306,307.409,306z"/>
		<path fill="#F7F9F9" d="M307.409,247.182c15.69,0,28.409,12.719,28.409,28.409S323.099,304,307.409,304S279,291.281,279,275.591
			S291.719,247.182,307.409,247.182 M307.409,243.182c-17.871,0-32.409,14.539-32.409,32.409S289.539,308,307.409,308
			s32.409-14.539,32.409-32.409S325.28,243.182,307.409,243.182L307.409,243.182z"/>
	</g>
</g>
<g>
	<g>
		<linearGradient id="SVGID_3_" gradientUnits="userSpaceOnUse" x1="159.4092" y1="381" x2="159.4092" y2="320.1821">
			<stop  offset="0" style="stop-color:#CC3300"/>
			<stop  offset="0.5576" style="stop-color:#F76100"/>
		</linearGradient>
		<path fill="url(#SVGID_3_)" d="M159.409,381C142.642,381,129,367.358,129,350.591s13.642-30.409,30.409-30.409
			s30.409,13.642,30.409,30.409S176.177,381,159.409,381z"/>
		<path fill="#F7F9F9" d="M159.409,322.182c15.69,0,28.409,12.719,28.409,28.409S175.099,379,159.409,379S131,366.281,131,350.591
			S143.719,322.182,159.409,322.182 M159.409,318.182c-17.871,0-32.409,14.539-32.409,32.409S141.539,383,159.409,383
			s32.409-14.539,32.409-32.409S177.28,318.182,159.409,318.182L159.409,318.182z"/>
	</g>
	<g>
		<linearGradient id="SVGID_4_" gradientUnits="userSpaceOnUse" x1="381.4092" y1="381" x2="381.4092" y2="320.1821">
			<stop  offset="0" style="stop-color:#CC3300"/>
			<stop  offset="0.5576" style="stop-color:#F76100"/>
		</linearGradient>
		<path fill="url(#SVGID_4_)" d="M381.409,381C364.642,381,351,367.358,351,350.591s13.642-30.409,30.409-30.409
			s30.409,13.642,30.409,30.409S398.177,381,381.409,381z"/>
		<path fill="#F7F9F9" d="M381.409,322.182c15.69,0,28.409,12.719,28.409,28.409S397.099,379,381.409,379S353,366.281,353,350.591
			S365.719,322.182,381.409,322.182 M381.409,318.182c-17.871,0-32.409,14.539-32.409,32.409S363.539,383,381.409,383
			s32.409-14.539,32.409-32.409S399.28,318.182,381.409,318.182L381.409,318.182z"/>
	</g>
</g>
<g>
	<g>
		<linearGradient id="SVGID_5_" gradientUnits="userSpaceOnUse" x1="159.4092" y1="456" x2="159.4092" y2="395.1816">
			<stop  offset="0.3091" style="stop-color:#CC3300"/>
			<stop  offset="0.7939" style="stop-color:#EB5400"/>
		</linearGradient>
		<path fill="url(#SVGID_5_)" d="M159.409,456C142.642,456,129,442.358,129,425.591s13.642-30.409,30.409-30.409
			s30.409,13.642,30.409,30.409S176.177,456,159.409,456z"/>
		<path fill="#F7F9F9" d="M159.409,397.182c15.69,0,28.409,12.719,28.409,28.409S175.099,454,159.409,454S131,441.281,131,425.591
			S143.719,397.182,159.409,397.182 M159.409,393.182c-17.871,0-32.409,14.539-32.409,32.409S141.539,458,159.409,458
			s32.409-14.539,32.409-32.409S177.28,393.182,159.409,393.182L159.409,393.182z"/>
	</g>
	<g>
		<linearGradient id="SVGID_6_" gradientUnits="userSpaceOnUse" x1="233.4092" y1="456" x2="233.4092" y2="395.1816">
			<stop  offset="0.3091" style="stop-color:#CC3300"/>
			<stop  offset="0.7939" style="stop-color:#EB5400"/>
		</linearGradient>
		<path fill="url(#SVGID_6_)" d="M233.409,456C216.642,456,203,442.358,203,425.591s13.642-30.409,30.409-30.409
			s30.409,13.642,30.409,30.409S250.177,456,233.409,456z"/>
		<path fill="#F7F9F9" d="M233.409,397.182c15.69,0,28.409,12.719,28.409,28.409S249.099,454,233.409,454S205,441.281,205,425.591
			S217.719,397.182,233.409,397.182 M233.409,393.182c-17.871,0-32.409,14.539-32.409,32.409S215.539,458,233.409,458
			s32.409-14.539,32.409-32.409S251.28,393.182,233.409,393.182L233.409,393.182z"/>
	</g>
	<g>
		<linearGradient id="SVGID_7_" gradientUnits="userSpaceOnUse" x1="307.4092" y1="456" x2="307.4092" y2="395.1816">
			<stop  offset="0.3091" style="stop-color:#CC3300"/>
			<stop  offset="0.7939" style="stop-color:#EB5400"/>
		</linearGradient>
		<path fill="url(#SVGID_7_)" d="M307.409,456C290.642,456,277,442.358,277,425.591s13.642-30.409,30.409-30.409
			s30.409,13.642,30.409,30.409S324.177,456,307.409,456z"/>
		<path fill="#F7F9F9" d="M307.409,397.182c15.69,0,28.409,12.719,28.409,28.409S323.099,454,307.409,454S279,441.281,279,425.591
			S291.719,397.182,307.409,397.182 M307.409,393.182c-17.871,0-32.409,14.539-32.409,32.409S289.539,458,307.409,458
			s32.409-14.539,32.409-32.409S325.28,393.182,307.409,393.182L307.409,393.182z"/>
	</g>
	<g>
		<linearGradient id="SVGID_8_" gradientUnits="userSpaceOnUse" x1="381.4092" y1="456" x2="381.4092" y2="395.1816">
			<stop  offset="0.3091" style="stop-color:#CC3300"/>
			<stop  offset="0.7939" style="stop-color:#EB5400"/>
		</linearGradient>
		<path fill="url(#SVGID_8_)" d="M381.409,456C364.642,456,351,442.358,351,425.591s13.642-30.409,30.409-30.409
			s30.409,13.642,30.409,30.409S398.177,456,381.409,456z"/>
		<path fill="#F7F9F9" d="M381.409,397.182c15.69,0,28.409,12.719,28.409,28.409S397.099,454,381.409,454S353,441.281,353,425.591
			S365.719,397.182,381.409,397.182 M381.409,393.182c-17.871,0-32.409,14.539-32.409,32.409S363.539,458,381.409,458
			s32.409-14.539,32.409-32.409S399.28,393.182,381.409,393.182L381.409,393.182z"/>
	</g>
</g>
<g>
	<g>
		<linearGradient id="SVGID_9_" gradientUnits="userSpaceOnUse" x1="159.4092" y1="531" x2="159.4092" y2="470.1816">
			<stop  offset="0.1455" style="stop-color:#CC3300"/>
			<stop  offset="0.48" style="stop-color:#C93300"/>
		</linearGradient>
		<path fill="url(#SVGID_9_)" d="M159.409,531C142.642,531,129,517.358,129,500.591s13.642-30.409,30.409-30.409
			s30.409,13.642,30.409,30.409S176.177,531,159.409,531z"/>
		<path fill="#F7F9F9" d="M159.409,472.182c15.69,0,28.409,12.719,28.409,28.409S175.099,529,159.409,529S131,516.281,131,500.591
			S143.719,472.182,159.409,472.182 M159.409,468.182c-17.871,0-32.409,14.539-32.409,32.409S141.539,533,159.409,533
			s32.409-14.539,32.409-32.409S177.28,468.182,159.409,468.182L159.409,468.182z"/>
	</g>
	<g>
		<linearGradient id="SVGID_10_" gradientUnits="userSpaceOnUse" x1="381.4092" y1="531" x2="381.4092" y2="470.1816">
			<stop  offset="0.1455" style="stop-color:#CC3300"/>
			<stop  offset="0.48" style="stop-color:#C93300"/>
		</linearGradient>
		<path fill="url(#SVGID_10_)" d="M381.409,531C364.642,531,351,517.358,351,500.591s13.642-30.409,30.409-30.409
			s30.409,13.642,30.409,30.409S398.177,531,381.409,531z"/>
		<path fill="#F7F9F9" d="M381.409,472.182c15.69,0,28.409,12.719,28.409,28.409S397.099,529,381.409,529S353,516.281,353,500.591
			S365.719,472.182,381.409,472.182 M381.409,468.182c-17.871,0-32.409,14.539-32.409,32.409S363.539,533,381.409,533
			s32.409-14.539,32.409-32.409S399.28,468.182,381.409,468.182L381.409,468.182z"/>
	</g>
</g>
<g>
	<g>
		<linearGradient id="SVGID_11_" gradientUnits="userSpaceOnUse" x1="159.4092" y1="608" x2="159.4092" y2="547.1816">
			<stop  offset="0.7394" style="stop-color:#CC3300"/>
			<stop  offset="0.9273" style="stop-color:#CC3300"/>
		</linearGradient>
		<path fill="url(#SVGID_11_)" d="M159.409,608C142.642,608,129,594.358,129,577.591s13.642-30.409,30.409-30.409
			s30.409,13.642,30.409,30.409S176.177,608,159.409,608z"/>
		<path fill="#F7F9F9" d="M159.409,549.182c15.69,0,28.409,12.719,28.409,28.409S175.099,606,159.409,606S131,593.281,131,577.591
			S143.719,549.182,159.409,549.182 M159.409,545.182c-17.871,0-32.409,14.539-32.409,32.409S141.539,610,159.409,610
			s32.409-14.539,32.409-32.409S177.28,545.182,159.409,545.182L159.409,545.182z"/>
	</g>
	<g>
		<linearGradient id="SVGID_12_" gradientUnits="userSpaceOnUse" x1="381.4092" y1="608" x2="381.4092" y2="547.1816">
			<stop  offset="0.7394" style="stop-color:#CC3300"/>
			<stop  offset="0.9273" style="stop-color:#CC3300"/>
		</linearGradient>
		<path fill="url(#SVGID_12_)" d="M381.409,608C364.642,608,351,594.358,351,577.591s13.642-30.409,30.409-30.409
			s30.409,13.642,30.409,30.409S398.177,608,381.409,608z"/>
		<path fill="#F7F9F9" d="M381.409,549.182c15.69,0,28.409,12.719,28.409,28.409S397.099,606,381.409,606S353,593.281,353,577.591
			S365.719,549.182,381.409,549.182 M381.409,545.182c-17.871,0-32.409,14.539-32.409,32.409S363.539,610,381.409,610
			s32.409-14.539,32.409-32.409S399.28,545.182,381.409,545.182L381.409,545.182z"/>
	</g>
</g>
<g opacity="0.52">
	<circle fill="#C1DBDB" cx="84.409" cy="199.591" r="28.409"/>
	<circle fill="#C1DBDB" cx="84.409" cy="275.591" r="28.409"/>
	<circle fill="#C1DBDB" cx="84.409" cy="350.591" r="28.409"/>
	<circle fill="#C1DBDB" cx="84.409" cy="425.591" r="28.409"/>
	<circle fill="#C1DBDB" cx="84.409" cy="500.591" r="28.409"/>
	<circle fill="#C1DBDB" cx="84.409" cy="577.591" r="28.409"/>
	<circle fill="#C1DBDB" cx="159.409" cy="199.591" r="28.409"/>
	<circle fill="#C1DBDB" cx="159.409" cy="275.591" r="28.409"/>
	<circle fill="#C1DBDB" cx="233.409" cy="200.591" r="28.409"/>
	<circle fill="#C1DBDB" cx="233.409" cy="350.591" r="28.409"/>
	<circle fill="#C1DBDB" cx="233.409" cy="500.591" r="28.409"/>
	<circle fill="#C1DBDB" cx="233.409" cy="577.591" r="28.409"/>
	<circle fill="#C1DBDB" cx="307.409" cy="200.591" r="28.409"/>
	<circle fill="#C1DBDB" cx="307.409" cy="350.591" r="28.409"/>
	<circle fill="#C1DBDB" cx="307.409" cy="500.591" r="28.409"/>
	<circle fill="#C1DBDB" cx="307.409" cy="577.591" r="28.409"/>
	<circle fill="#C1DBDB" cx="368.409" cy="138.591" r="28.409"/>
	<circle fill="#C1DBDB" cx="381.409" cy="275.591" r="28.409"/>
	<circle fill="#C1DBDB" cx="576.409" cy="106.591" r="28.409"/>
	<circle fill="#C1DBDB" cx="522.409" cy="280.591" r="28.409"/>
	<circle fill="#C1DBDB" cx="459.409" cy="350.591" r="28.409"/>
	<circle fill="#C1DBDB" cx="460.409" cy="425.591" r="28.409"/>
	<circle fill="#C1DBDB" cx="460.409" cy="500.591" r="28.409"/>
	<circle fill="#C1DBDB" cx="460.409" cy="577.591" r="28.409"/>
</g>
<g>
	<g>
		<path fill="#800000018000000180000001" stroke="#F7F9F9" stroke-width="4" stroke-miterlimit="10" d="M627.184,604.928V413.795
			c0.648-18.319,3.945-34.248,9.887-47.783c5.942-13.535,13.572-24.507,22.892-32.915c9.318-8.408,19.4-14.561,30.246-18.457
			c10.845-3.896,21.755-5.845,32.73-5.845c22.405,0,41.124,5.47,56.158,16.406c15.034,10.938,26.058,24.439,33.071,40.503
			c7.014,16.065,10.521,31.548,10.521,46.45c0,10.938-1.446,22.199-4.334,33.787c-2.891,11.586-7.793,22.66-14.709,33.223
			c-6.916,10.561-16.35,19.448-28.298,26.66c-11.95,7.213-26.496,11.535-43.641,12.971c-9.741,0-18.655-0.889-26.74-2.666
			c-8.085-1.777-17.648-5.775-28.688-11.997v-38.657c1.428,0.684,5.665,2.855,12.712,6.512c7.045,3.657,12.289,6.188,15.732,7.588
			c3.441,1.401,6.916,2.409,10.423,3.024s7.696,0.923,12.566,0.923c12.274-0.272,22.924-3.554,31.951-9.844
			c9.026-6.289,15.942-14.799,20.749-25.532c4.805-10.731,7.208-22.729,7.208-35.991c0-13.877-3.068-26.061-9.205-36.555
			c-6.137-10.493-14.125-18.509-23.963-24.046c-9.839-5.537-20.084-8.306-30.734-8.306c-10.001,0-19.71,2.855-29.126,8.563
			c-9.417,5.708-17.161,14.578-23.233,26.608c-6.073,12.032-9.108,26.763-9.108,44.194v182.314H627.184z"/>
		<path fill="#800000018000000180000001" stroke="#F7F9F9" stroke-width="4" stroke-miterlimit="10" d="M867.768,411.231
			c0.259-19.277,5.163-36.743,14.709-52.397c9.546-15.653,21.95-27.906,37.212-36.76c15.26-8.852,30.911-13.279,46.952-13.279
			c16.624,0.343,32.634,4.512,48.024,12.51s28.006,19.79,37.844,35.376c9.84,15.586,14.758,34.078,14.758,55.474
			c0,16.134-3.604,32.283-10.813,48.449c-7.208,16.168-17.939,29.721-32.194,40.657c-14.255,10.938-31.06,16.781-50.411,17.534
			c-16.041,0-30.604-2.786-43.689-8.357c-13.086-5.57-24.353-13.33-33.801-23.275c-9.45-9.947-16.643-21.227-21.578-33.838
			c-4.936-12.613-7.566-26.062-7.89-40.35c0.39-0.342,0.633-0.683,0.73-1.025C867.72,411.607,867.768,411.369,867.768,411.231z
			 M904.395,410.411c0,19.552,5.098,36.624,15.295,51.218c10.194,14.596,26.656,21.893,49.387,21.893
			c11.754,0,22.211-2.461,31.367-7.383s16.397-12.971,21.723-24.148c5.324-11.176,7.988-25.583,7.988-43.22
			c-0.779-19.482-6.965-35.136-18.557-46.963c-11.592-11.825-26.287-17.739-44.08-17.739c-13.897,0.273-25.538,3.727-34.922,10.356
			c-9.385,6.632-16.35,14.954-20.895,24.968C907.154,389.408,904.719,399.747,904.395,410.411z"/>
		<path fill="#800000018000000180000001" stroke="#F7F9F9" stroke-width="4" stroke-miterlimit="10" d="M1121.113,312.999h33.418
			v23.481c4.545-7.998,11.088-14.612,19.627-19.841c8.537-5.229,18.619-7.844,30.244-7.844h10.811v35.273h-8.377
			c-17.924,0-30.719,6.87-38.381,20.61s-11.754,28.438-12.273,44.092v105.82h-35.068V312.999z"/>
		<path fill="#800000018000000180000001" stroke="#F7F9F9" stroke-width="4" stroke-miterlimit="10" d="M1261.169,451.632V261.729
			h34.678v51.27h68.676v35.273h-68.676v110.435c0,5.605,2.144,10.443,6.43,14.51c4.286,4.067,10.521,6.101,18.703,6.101h43.543
			v35.273H1320.2c-13.703,0-25.003-2.871-33.899-8.613c-8.898-5.742-15.311-13.382-19.239-22.917
			C1263.132,473.523,1261.169,463.049,1261.169,451.632z"/>
		<path fill="#800000018000000180000001" stroke="#F7F9F9" stroke-width="4" stroke-miterlimit="10" d="M1564.779,514.591V398.209
			c-0.521-10.186-3.346-19.396-8.475-27.635c-5.132-8.236-12.356-14.714-21.675-19.431c-9.319-4.717-20.278-7.075-32.876-7.075
			c-8.833,0-18.021,2.153-27.568,6.46c-9.546,4.307-17.714,11.571-24.499,21.79c-6.787,10.22-10.311,23.498-10.569,39.836
			c0,14.629,2.938,27.344,8.816,38.145c5.876,10.802,13.638,19.039,23.281,24.712c9.644,5.675,19.823,8.511,30.539,8.511
			c18.442,0,34.808-9.398,49.096-28.198v44.604c-7.599,5.06-13.103,8.58-16.512,10.562c-3.409,1.983-7.988,3.794-13.735,5.435
			s-13.102,2.598-22.063,2.871c-15.766,0-30.913-4.374-45.444-13.125c-14.533-8.75-26.34-21.242-35.422-37.479
			c-9.083-16.234-13.624-34.914-13.624-56.037c0-19.004,3.845-36.35,11.537-52.039c7.691-15.688,19.131-28.162,34.321-37.426
			c15.188-9.262,33.428-13.894,54.719-13.894c15.254,0,28.966,2.479,41.137,7.434c12.17,4.957,22.312,11.724,30.426,20.302
			c8.112,8.58,14.231,18.424,18.353,29.531c4.122,11.109,6.184,22.815,6.184,35.12v113.408H1564.779z"/>
		<path fill="#800000018000000180000001" stroke="#F7F9F9" stroke-width="4" stroke-miterlimit="10" d="M1666.551,220.201h35.068
			v294.39h-35.068V220.201z"/>
	</g>
	<g>
		<linearGradient id="SVGID_13_" gradientUnits="userSpaceOnUse" x1="1164.4014" y1="604.9277" x2="1164.4014" y2="220.2017">
			<stop  offset="0.18" style="stop-color:#CC3300"/>
			<stop  offset="0.81" style="stop-color:#F76100"/>
		</linearGradient>
		<path fill="url(#SVGID_13_)" d="M627.184,604.928V413.795c0.648-18.319,3.945-34.248,9.887-47.783
			c5.942-13.535,13.572-24.507,22.892-32.915c9.318-8.408,19.4-14.561,30.246-18.457c10.845-3.896,21.755-5.845,32.73-5.845
			c22.405,0,41.124,5.47,56.158,16.406c15.034,10.938,26.058,24.439,33.071,40.503c7.014,16.065,10.521,31.548,10.521,46.45
			c0,10.938-1.446,22.199-4.334,33.787c-2.891,11.586-7.793,22.66-14.709,33.223c-6.916,10.561-16.35,19.448-28.298,26.66
			c-11.95,7.213-26.496,11.535-43.641,12.971c-9.741,0-18.655-0.889-26.74-2.666c-8.085-1.777-17.648-5.775-28.688-11.997v-38.657
			c1.428,0.684,5.665,2.855,12.712,6.512c7.045,3.657,12.289,6.188,15.732,7.588c3.441,1.401,6.916,2.409,10.423,3.024
			s7.696,0.923,12.566,0.923c12.274-0.272,22.924-3.554,31.951-9.844c9.026-6.289,15.942-14.799,20.749-25.532
			c4.805-10.731,7.208-22.729,7.208-35.991c0-13.877-3.068-26.061-9.205-36.555c-6.137-10.493-14.125-18.509-23.963-24.046
			c-9.839-5.537-20.084-8.306-30.734-8.306c-10.001,0-19.71,2.855-29.126,8.563c-9.417,5.708-17.161,14.578-23.233,26.608
			c-6.073,12.032-9.108,26.763-9.108,44.194v182.314H627.184z"/>
		<linearGradient id="SVGID_14_" gradientUnits="userSpaceOnUse" x1="1164.4014" y1="604.9277" x2="1164.4014" y2="220.2017">
			<stop  offset="0.18" style="stop-color:#CC3300"/>
			<stop  offset="0.81" style="stop-color:#F76100"/>
		</linearGradient>
		<path fill="url(#SVGID_14_)" d="M867.768,411.231c0.259-19.277,5.163-36.743,14.709-52.397
			c9.546-15.653,21.95-27.906,37.212-36.76c15.26-8.852,30.911-13.279,46.952-13.279c16.624,0.343,32.634,4.512,48.024,12.51
			s28.006,19.79,37.844,35.376c9.84,15.586,14.758,34.078,14.758,55.474c0,16.134-3.604,32.283-10.813,48.449
			c-7.208,16.168-17.939,29.721-32.194,40.657c-14.255,10.938-31.06,16.781-50.411,17.534c-16.041,0-30.604-2.786-43.689-8.357
			c-13.086-5.57-24.353-13.33-33.801-23.275c-9.45-9.947-16.643-21.227-21.578-33.838c-4.936-12.613-7.566-26.062-7.89-40.35
			c0.39-0.342,0.633-0.683,0.73-1.025C867.72,411.607,867.768,411.369,867.768,411.231z M904.395,410.411
			c0,19.552,5.098,36.624,15.295,51.218c10.194,14.596,26.656,21.893,49.387,21.893c11.754,0,22.211-2.461,31.367-7.383
			s16.397-12.971,21.723-24.148c5.324-11.176,7.988-25.583,7.988-43.22c-0.779-19.482-6.965-35.136-18.557-46.963
			c-11.592-11.825-26.287-17.739-44.08-17.739c-13.897,0.273-25.538,3.727-34.922,10.356c-9.385,6.632-16.35,14.954-20.895,24.968
			C907.154,389.408,904.719,399.747,904.395,410.411z"/>
		<linearGradient id="SVGID_15_" gradientUnits="userSpaceOnUse" x1="1164.4014" y1="604.9277" x2="1164.4014" y2="220.2017">
			<stop  offset="0.18" style="stop-color:#CC3300"/>
			<stop  offset="0.81" style="stop-color:#F76100"/>
		</linearGradient>
		<path fill="url(#SVGID_15_)" d="M1121.113,312.999h33.418v23.481c4.545-7.998,11.088-14.612,19.627-19.841
			c8.537-5.229,18.619-7.844,30.244-7.844h10.811v35.273h-8.377c-17.924,0-30.719,6.87-38.381,20.61s-11.754,28.438-12.273,44.092
			v105.82h-35.068V312.999z"/>
		<linearGradient id="SVGID_16_" gradientUnits="userSpaceOnUse" x1="1164.4014" y1="604.9277" x2="1164.4014" y2="220.2017">
			<stop  offset="0.18" style="stop-color:#CC3300"/>
			<stop  offset="0.81" style="stop-color:#F76100"/>
		</linearGradient>
		<path fill="url(#SVGID_16_)" d="M1261.169,451.632V261.729h34.678v51.27h68.676v35.273h-68.676v110.435
			c0,5.605,2.144,10.443,6.43,14.51c4.286,4.067,10.521,6.101,18.703,6.101h43.543v35.273H1320.2
			c-13.703,0-25.003-2.871-33.899-8.613c-8.898-5.742-15.311-13.382-19.239-22.917
			C1263.132,473.523,1261.169,463.049,1261.169,451.632z"/>
		<linearGradient id="SVGID_17_" gradientUnits="userSpaceOnUse" x1="1164.4014" y1="604.9277" x2="1164.4014" y2="220.2017">
			<stop  offset="0.18" style="stop-color:#CC3300"/>
			<stop  offset="0.81" style="stop-color:#F76100"/>
		</linearGradient>
		<path fill="url(#SVGID_17_)" d="M1564.779,514.591V398.209c-0.521-10.186-3.346-19.396-8.475-27.635
			c-5.132-8.236-12.356-14.714-21.675-19.431c-9.319-4.717-20.278-7.075-32.876-7.075c-8.833,0-18.021,2.153-27.568,6.46
			c-9.546,4.307-17.714,11.571-24.499,21.79c-6.787,10.22-10.311,23.498-10.569,39.836c0,14.629,2.938,27.344,8.816,38.145
			c5.876,10.802,13.638,19.039,23.281,24.712c9.644,5.675,19.823,8.511,30.539,8.511c18.442,0,34.808-9.398,49.096-28.198v44.604
			c-7.599,5.06-13.103,8.58-16.512,10.562c-3.409,1.983-7.988,3.794-13.735,5.435s-13.102,2.598-22.063,2.871
			c-15.766,0-30.913-4.374-45.444-13.125c-14.533-8.75-26.34-21.242-35.422-37.479c-9.083-16.234-13.624-34.914-13.624-56.037
			c0-19.004,3.845-36.35,11.537-52.039c7.691-15.688,19.131-28.162,34.321-37.426c15.188-9.262,33.428-13.894,54.719-13.894
			c15.254,0,28.966,2.479,41.137,7.434c12.17,4.957,22.312,11.724,30.426,20.302c8.112,8.58,14.231,18.424,18.353,29.531
			c4.122,11.109,6.184,22.815,6.184,35.12v113.408H1564.779z"/>
		<linearGradient id="SVGID_18_" gradientUnits="userSpaceOnUse" x1="1164.4014" y1="604.9277" x2="1164.4014" y2="220.2017">
			<stop  offset="0.18" style="stop-color:#CC3300"/>
			<stop  offset="0.81" style="stop-color:#F76100"/>
		</linearGradient>
		<path fill="url(#SVGID_18_)" d="M1666.551,220.201h35.068v294.39h-35.068V220.201z"/>
	</g>
	<g>
		<linearGradient id="SVGID_19_" gradientUnits="userSpaceOnUse" x1="1164.4014" y1="606.9277" x2="1164.4014" y2="218.2017">
			<stop  offset="0.18" style="stop-color:#CC3300"/>
			<stop  offset="0.81" style="stop-color:#F76100"/>
		</linearGradient>
		<path fill="none" stroke="url(#SVGID_19_)" stroke-width="3" stroke-miterlimit="10" d="M627.184,604.928V413.795
			c0.648-18.319,3.945-34.248,9.887-47.783c5.942-13.535,13.572-24.507,22.892-32.915c9.318-8.408,19.4-14.561,30.246-18.457
			c10.845-3.896,21.755-5.845,32.73-5.845c22.405,0,41.124,5.47,56.158,16.406c15.034,10.938,26.058,24.439,33.071,40.503
			c7.014,16.065,10.521,31.548,10.521,46.45c0,10.938-1.446,22.199-4.334,33.787c-2.891,11.586-7.793,22.66-14.709,33.223
			c-6.916,10.561-16.35,19.448-28.298,26.66c-11.95,7.213-26.496,11.535-43.641,12.971c-9.741,0-18.655-0.889-26.74-2.666
			c-8.085-1.777-17.648-5.775-28.688-11.997v-38.657c1.428,0.684,5.665,2.855,12.712,6.512c7.045,3.657,12.289,6.188,15.732,7.588
			c3.441,1.401,6.916,2.409,10.423,3.024s7.696,0.923,12.566,0.923c12.274-0.272,22.924-3.554,31.951-9.844
			c9.026-6.289,15.942-14.799,20.749-25.532c4.805-10.731,7.208-22.729,7.208-35.991c0-13.877-3.068-26.061-9.205-36.555
			c-6.137-10.493-14.125-18.509-23.963-24.046c-9.839-5.537-20.084-8.306-30.734-8.306c-10.001,0-19.71,2.855-29.126,8.563
			c-9.417,5.708-17.161,14.578-23.233,26.608c-6.073,12.032-9.108,26.763-9.108,44.194v182.314H627.184z"/>
		<linearGradient id="SVGID_20_" gradientUnits="userSpaceOnUse" x1="1164.4014" y1="606.9277" x2="1164.4014" y2="218.2017">
			<stop  offset="0.18" style="stop-color:#CC3300"/>
			<stop  offset="0.81" style="stop-color:#F76100"/>
		</linearGradient>
		<path fill="none" stroke="url(#SVGID_20_)" stroke-width="3" stroke-miterlimit="10" d="M867.768,411.231
			c0.259-19.277,5.163-36.743,14.709-52.397c9.546-15.653,21.95-27.906,37.212-36.76c15.26-8.852,30.911-13.279,46.952-13.279
			c16.624,0.343,32.634,4.512,48.024,12.51s28.006,19.79,37.844,35.376c9.84,15.586,14.758,34.078,14.758,55.474
			c0,16.134-3.604,32.283-10.813,48.449c-7.208,16.168-17.939,29.721-32.194,40.657c-14.255,10.938-31.06,16.781-50.411,17.534
			c-16.041,0-30.604-2.786-43.689-8.357c-13.086-5.57-24.353-13.33-33.801-23.275c-9.45-9.947-16.643-21.227-21.578-33.838
			c-4.936-12.613-7.566-26.062-7.89-40.35c0.39-0.342,0.633-0.683,0.73-1.025C867.72,411.607,867.768,411.369,867.768,411.231z
			 M904.395,410.411c0,19.552,5.098,36.624,15.295,51.218c10.194,14.596,26.656,21.893,49.387,21.893
			c11.754,0,22.211-2.461,31.367-7.383s16.397-12.971,21.723-24.148c5.324-11.176,7.988-25.583,7.988-43.22
			c-0.779-19.482-6.965-35.136-18.557-46.963c-11.592-11.825-26.287-17.739-44.08-17.739c-13.897,0.273-25.538,3.727-34.922,10.356
			c-9.385,6.632-16.35,14.954-20.895,24.968C907.154,389.408,904.719,399.747,904.395,410.411z"/>
		<linearGradient id="SVGID_21_" gradientUnits="userSpaceOnUse" x1="1164.4014" y1="606.9277" x2="1164.4014" y2="218.2017">
			<stop  offset="0.18" style="stop-color:#CC3300"/>
			<stop  offset="0.81" style="stop-color:#F76100"/>
		</linearGradient>
		<path fill="none" stroke="url(#SVGID_21_)" stroke-width="3" stroke-miterlimit="10" d="M1121.113,312.999h33.418v23.481
			c4.545-7.998,11.088-14.612,19.627-19.841c8.537-5.229,18.619-7.844,30.244-7.844h10.811v35.273h-8.377
			c-17.924,0-30.719,6.87-38.381,20.61s-11.754,28.438-12.273,44.092v105.82h-35.068V312.999z"/>
		<linearGradient id="SVGID_22_" gradientUnits="userSpaceOnUse" x1="1164.4014" y1="606.9277" x2="1164.4014" y2="218.2017">
			<stop  offset="0.18" style="stop-color:#CC3300"/>
			<stop  offset="0.81" style="stop-color:#F76100"/>
		</linearGradient>
		<path fill="none" stroke="url(#SVGID_22_)" stroke-width="3" stroke-miterlimit="10" d="M1261.169,451.632V261.729h34.678v51.27
			h68.676v35.273h-68.676v110.435c0,5.605,2.144,10.443,6.43,14.51c4.286,4.067,10.521,6.101,18.703,6.101h43.543v35.273H1320.2
			c-13.703,0-25.003-2.871-33.899-8.613c-8.898-5.742-15.311-13.382-19.239-22.917
			C1263.132,473.523,1261.169,463.049,1261.169,451.632z"/>
		<linearGradient id="SVGID_23_" gradientUnits="userSpaceOnUse" x1="1164.4014" y1="606.9277" x2="1164.4014" y2="218.2017">
			<stop  offset="0.18" style="stop-color:#CC3300"/>
			<stop  offset="0.81" style="stop-color:#F76100"/>
		</linearGradient>
		<path fill="none" stroke="url(#SVGID_23_)" stroke-width="3" stroke-miterlimit="10" d="M1564.779,514.591V398.209
			c-0.521-10.186-3.346-19.396-8.475-27.635c-5.132-8.236-12.356-14.714-21.675-19.431c-9.319-4.717-20.278-7.075-32.876-7.075
			c-8.833,0-18.021,2.153-27.568,6.46c-9.546,4.307-17.714,11.571-24.499,21.79c-6.787,10.22-10.311,23.498-10.569,39.836
			c0,14.629,2.938,27.344,8.816,38.145c5.876,10.802,13.638,19.039,23.281,24.712c9.644,5.675,19.823,8.511,30.539,8.511
			c18.442,0,34.808-9.398,49.096-28.198v44.604c-7.599,5.06-13.103,8.58-16.512,10.562c-3.409,1.983-7.988,3.794-13.735,5.435
			s-13.102,2.598-22.063,2.871c-15.766,0-30.913-4.374-45.444-13.125c-14.533-8.75-26.34-21.242-35.422-37.479
			c-9.083-16.234-13.624-34.914-13.624-56.037c0-19.004,3.845-36.35,11.537-52.039c7.691-15.688,19.131-28.162,34.321-37.426
			c15.188-9.262,33.428-13.894,54.719-13.894c15.254,0,28.966,2.479,41.137,7.434c12.17,4.957,22.312,11.724,30.426,20.302
			c8.112,8.58,14.231,18.424,18.353,29.531c4.122,11.109,6.184,22.815,6.184,35.12v113.408H1564.779z"/>
		<linearGradient id="SVGID_24_" gradientUnits="userSpaceOnUse" x1="1164.4014" y1="606.9277" x2="1164.4014" y2="218.2017">
			<stop  offset="0.18" style="stop-color:#CC3300"/>
			<stop  offset="0.81" style="stop-color:#F76100"/>
		</linearGradient>
		<path fill="none" stroke="url(#SVGID_24_)" stroke-width="3" stroke-miterlimit="10" d="M1666.551,220.201h35.068v294.39h-35.068
			V220.201z"/>
	</g>
</g>
</svg>
