<?xml version="1.0" encoding="utf-8"?>
<!-- Generator: Adobe Illustrator 16.0.0, SVG Export Plug-In . SVG Version: 6.00 Build 0)  -->
<!DOCTYPE svg PUBLIC "-//W3C//DTD SVG 1.1//EN" "http://www.w3.org/Graphics/SVG/1.1/DTD/svg11.dtd">
<svg version="1.1" id="图层_1" xmlns="http://www.w3.org/2000/svg" xmlns:xlink="http://www.w3.org/1999/xlink" x="0px" y="0px"
	 width="708.66px" height="708.66px" viewBox="0 0 708.66 708.66" enable-background="new 0 0 708.66 708.66" xml:space="preserve">
<path fill-rule="evenodd" clip-rule="evenodd" fill="#FEFEFE" d="M703.43,634.785c0,23.51-0.164,47.022,0.139,70.53
	c0.06,4.654-0.92,5.558-5.564,5.555c-217.021-0.146-434.041-0.128-651.061-0.128c-11.303,0-22.609-0.154-33.907,0.093
	c-3.402,0.074-4.186-0.769-4.162-4.162c0.17-23.962,0.09-47.925,0.09-71.888c1.979-1.813,4.446-2.061,6.958-2.159
	c2.258-0.091,4.518-0.066,6.777-0.066c222.332-0.001,444.665-0.008,666.997,0.045C694.334,632.605,699.264,631.497,703.43,634.785z"
	/>
<path fill-rule="evenodd" clip-rule="evenodd" fill="#07A521" d="M703.43,634.785c-231.488,0-462.977,0-694.465,0
	c0-2.713,0-5.426,0-8.139c1.641-3.687,3.283-7.371,4.924-11.058c3.869-2.542,8.252-2.004,12.511-2.006
	c84.285-0.023,168.57-0.017,252.855-0.017c135.354,0,270.705-0.006,406.06,0.021c4.474,0.002,9.098-0.662,13.189,2.001
	c1.643,3.686,3.283,7.372,4.926,11.059C703.43,629.359,703.43,632.072,703.43,634.785z"/>
<path fill-rule="evenodd" clip-rule="evenodd" fill="#07A421" d="M173.079,358.069c12.362-20.823,24.648-41.688,36.201-64.182
	c12.24,21.773,24.056,42.796,35.874,63.817c2.431,4.209-0.553,7.271-2.311,10.531c-6.671,12.362-6.697,12.35,6.9,12.35
	c23.171,0,46.342,0.015,69.514-0.008c8.945-0.008,9.329-0.842,5.381-9.087c-2.069-4.322-6.203-7.928-5.069-13.47
	c12.789-20.551,24.552-41.702,36.629-64.233c12.078,22.531,23.838,43.684,36.631,64.233c1.199,3.471-1.027,6.045-2.422,8.768
	c-1.538,3-3.272,5.893-4.528,9.044c-1.306,3.277-0.084,4.645,3.219,4.702c1.351,0.024,2.7,0.049,4.05,0.049
	c24.528,0.002,49.058,0.017,73.585-0.006c8.565-0.008,8.603-0.136,4.919-8.133c-1.132-2.46-2.542-4.764-3.789-7.156
	c-1.251-2.398-2.587-4.856-0.602-7.543c11.031-21.271,24.456-41.188,35.414-64.416c12.055,22.935,24.278,43.879,36.642,64.74
	c1.868,4.862-1.978,7.973-3.797,11.559c-5.322,10.479-5.182,10.886,6.624,10.894c14.614,0.009,29.229-0.045,43.841,0.038
	c3.075,0.019,6.372-0.575,8.941,1.942c2.333,4.394,4.665,8.787,6.998,13.182c-0.587,4.834-4.592,3.485-7.244,3.556
	c-11.741,0.31-23.499,0.38-35.234,0.03c-6.451-0.192-10.443,2.193-13.589,7.805c-8.283,14.774-16.838,29.396-24.699,44.405
	c-2.921,5.575-2.537,6.312,4.1,6.338c23.944,0.097,47.89-0.049,71.833,0.122c3.771,0.026,8.343-1.577,10.871,3.168
	c3.019,5.398,7.081,10.235,8.768,16.349c-2.639,2.428-5.937,1.829-9.035,1.838c-20.558,0.062-41.118,0.189-61.673-0.06
	c-6.799-0.083-11.215,1.998-14.733,8.247c-7.203,12.792-13.808,25.912-21.261,38.558c-6.081,10.32-8.339,10.233-14.276,0.075
	c-7.296-12.479-13.645-25.473-20.909-37.977c-3.563-6.133-7.806-9.087-15.148-8.945c-19.873,0.386-39.766,0.439-59.635-0.02
	c-7.866-0.182-12.408,2.819-16.181,9.498c-7.331,12.978-13.895,26.373-21.574,39.155c-4.814,8.014-7.412,8.058-12.107,0.175
	c-7.975-13.389-14.762-27.434-22.678-40.863c-3.23-5.481-7.188-7.982-13.636-7.904c-20.555,0.25-41.117,0.287-61.671-0.014
	c-7.072-0.103-11.152,2.942-14.571,8.797c-7.179,12.292-13.334,25.139-20.614,37.367c-0.808,1.357-1.483,2.797-2.376,4.104
	c-3.823,5.602-6.369,5.689-10.067,0.118c-3.499-5.271-6.696-10.768-9.45-16.441c-4.449-9.167-10.055-17.671-14.708-26.696
	c-2.76-5.358-6.776-7.232-12.571-7.197c-21.235,0.133-42.471,0.097-63.706,0.013c-3.064-0.014-6.413,0.729-8.92-1.994
	c3.072-5.398,6.144-10.797,9.216-16.195c2.09-4.274,6.137-3.151,9.523-3.171c23.261-0.133,46.522-0.063,69.784-0.069
	c1.807,0,3.613-0.011,5.419-0.05c3.993-0.088,4.552-1.787,2.755-5.151c-8.621-16.135-17.582-32.074-26.829-47.859
	c-2.52-4.301-6.133-5.479-10.769-5.45c-12.194,0.077-24.394,0.205-36.583-0.104c-2.65-0.067-6.647,1.284-7.25-3.537
	c2.336-4.404,4.674-8.807,7.01-13.211c2.575-2.504,5.87-1.914,8.942-1.931c15.732-0.084,31.464,0.031,47.196-0.068
	c7.406-0.047,7.74-1.034,4.819-7.89C176.443,367.867,171.378,364.187,173.079,358.069z"/>
<path fill-rule="evenodd" clip-rule="evenodd" fill="#0FBB30" d="M95.226,477.291c24.623,0.055,49.247,0.244,73.868,0.069
	c6.179-0.044,9.786,2.071,12.73,7.706c7.597,14.537,15.915,28.698,24.006,42.977c3.377,5.959,4.28,6.029,7.624,0.085
	c7.495-13.325,15.077-26.618,22.055-40.214c3.808-7.42,8.499-10.957,17.386-10.673c20.989,0.667,42.014,0.309,63.022,0.149
	c5.499-0.041,9.161,1.53,11.934,6.764c7.89,14.89,16.347,29.481,24.633,44.16c0.941,1.669,1.237,4.315,3.825,4.191
	c2.465-0.118,2.761-2.711,3.71-4.396c8.489-15.083,17.013-30.148,25.312-45.335c2.143-3.921,5.183-5.332,9.343-5.328
	c23.044,0.019,46.088,0.151,69.129-0.089c6.038-0.063,9.027,3.355,11.512,7.815c7.438,13.358,14.76,26.782,22.145,40.17
	c0.869,1.574,1.863,3.08,2.771,4.636c2.068,3.543,3.623,3.146,5.537-0.319c8.265-14.956,16.999-29.661,24.906-44.8
	c2.993-5.73,6.783-7.543,12.859-7.491c24.396,0.207,48.796,0.086,73.195,0.088c0.484,0.751,0.97,1.501,1.454,2.252
	c0.052,5.079-3.891,4.84-7.088,4.96c-9.007,0.341-18.024,0.113-27.039,0.132c-12.167,0.024-24.339,0.146-36.504-0.05
	c-6.055-0.098-9.964,2.106-13.068,7.519c-6.729,11.729-12.506,23.972-19.564,35.509c-1.641,2.684-2.944,5.602-5.64,7.493
	c-5.615,2.008-11.424,0.945-17.16,1.093c-0.845,0.006-1.687,0.008-2.531,0.031c-15.864,0.24-31.727,0.274-47.587,0.004
	c-7.634,0.142-15.269,0.21-22.903-0.02c-0.855-0.001-1.71-0.004-2.564,0.015c-15.92,0.242-31.838,0.295-47.754-0.008
	c-7.621,0.087-15.244,0.269-22.867-0.008c-0.851-0.002-1.7-0.007-2.551,0.012c-15.787,0.224-31.573,0.258-47.359,0.001
	c-0.849-0.008-1.699-0.017-2.549-0.004c-7.628,0.207-15.257,0.176-22.888,0.012c-15.852,0.244-31.703,0.242-47.549,0.019
	c-0.835-0.022-1.675-0.045-2.511-0.042c-5.733-0.116-11.526,0.778-17.179-0.903c-6.369-5.457-9.128-13.301-12.998-20.334
	c-4.242-7.712-8.745-15.284-12.79-23.098c-2.711-5.234-6.695-7.332-12.555-7.291c-20.543,0.143-41.089,0.172-61.631-0.037
	c-3.661-0.037-8.576,1.167-9.128-5.002C94.558,478.904,94.892,478.098,95.226,477.291z"/>
<path fill-rule="evenodd" clip-rule="evenodd" fill="#0FBB30" d="M698.504,615.588c-2.936,0.067-5.871,0.194-8.807,0.194
	c-222.334,0.009-444.668,0.009-667.003,0c-2.936,0-5.871-0.126-8.806-0.193c8.303-14.871,21.432-21.263,37.986-21.378
	c24.134-0.168,48.269-0.194,72.403-0.28c7.932-3.734,16.319-1.364,24.495-1.839c16.164-0.256,32.328-0.289,48.491,0
	c8.249-0.213,16.497-0.231,24.746-0.001c16.166-0.256,32.331-0.289,48.496,0c8.249-0.212,16.499-0.23,24.748,0
	c16.167-0.256,32.332-0.289,48.497,0c8.249-0.212,16.499-0.23,24.748,0c16.166-0.256,32.332-0.289,48.497,0
	c8.249-0.212,16.498-0.23,24.748,0c16.166-0.256,32.331-0.289,48.497,0c8.249-0.214,16.499-0.23,24.75,0
	c16.181-0.257,32.362-0.288,48.543-0.002c8.211,0.472,16.637-1.911,24.602,1.842c24.368,0.086,48.738,0.115,73.106,0.28
	C677.633,594.322,690.377,600.978,698.504,615.588z"/>
<path fill-rule="evenodd" clip-rule="evenodd" fill="#E9B832" d="M207.56,91.599c-36.864,12.958-53.866,37.498-47.887,69.483
	c5.109,27.331,28.057,49.198,62.407,46.807c-6.673,16.895-39.51,31.229-67.505,29.465c-32.593-2.052-61.807-27.503-69.776-60.788
	c-8.242-34.424,7.11-71.512,37.033-89.474C148.376,71.16,186.734,73.177,207.56,91.599z"/>
<path fill-rule="evenodd" clip-rule="evenodd" fill="#0FBB30" d="M509.468,534.325c8.575-15.742,17.14-31.49,25.736-47.222
	c2.177-3.984,5.974-4.254,9.936-4.248c21.648,0.032,43.296,0.028,64.945,0c3.066-0.004,6.524,0.795,8.097-3.146
	c11.619,17.155,19.792,36.254,31.701,55.147c-21.413,0-41.558,0-61.703,0c-7.355,3.104-15.049,1.138-22.587,1.521
	c-0.852-0.001-1.703-0.004-2.555,0.015c-15.858,0.205-31.714,0.334-47.57-0.048C513.285,536.212,511.049,536.234,509.468,534.325z"
	/>
<path fill-rule="evenodd" clip-rule="evenodd" fill="#0FBB30" d="M94.223,479.711c1.561,3.945,5.018,3.14,8.076,3.144
	c21.381,0.029,42.764,0.189,64.141-0.101c5.692-0.077,9.372,1.872,12,6.729c8.106,14.978,16.316,29.898,24.486,44.843
	c-1.582,1.884-3.8,1.862-5.966,2.004c-15.817,0.363-31.635,0.29-47.454,0.063c-0.852-0.009-1.705-0.017-2.557-0.004
	c-7.586-0.392-15.335,1.604-22.734-1.532c-20.139,0-40.278,0-61.661,0C74.311,516.131,82.558,496.964,94.223,479.711z"/>
<path fill-rule="evenodd" clip-rule="evenodd" fill="#0FBB30" d="M607.96,461.108c-2.39-1.801-5.177-1.29-7.85-1.292
	c-25.981-0.021-51.964,0.004-77.944-0.047c-2.15-0.004-4.953,0.95-6.155-1.531c-0.99-2.049,1.204-3.587,2.173-5.311
	c9.141-16.274,18.355-32.513,27.232-48.934c2.678-4.957,5.968-6.915,11.709-6.712c12.637,0.449,25.3,0.179,37.951,0.104
	c2.364-0.015,5.068,0.865,6.847-1.702c11.778,19.408,22.768,39.26,33.659,59.175c2.116,3.87,0.992,4.533-2.794,4.434
	c-6.318-0.167-12.647-0.152-18.966,0.017C611.804,459.364,609.152,458.092,607.96,461.108z"/>
<path fill-rule="evenodd" clip-rule="evenodd" fill="#0FBB30" d="M110.493,395.703c1.786,2.558,4.49,1.669,6.853,1.683
	c13.326,0.074,26.656,0.186,39.979-0.059c3.851-0.07,6.441,1.047,8.298,4.344c10.039,17.829,20.181,35.6,30.137,53.474
	c2.709,4.865-1.247,4.617-4.18,4.632c-12.198,0.061-24.396,0.026-36.593,0.027c-14.457,0-28.913-0.002-43.369,0.003
	c-2.465,0.001-5-0.346-7.175,1.289c-1.21-2.995-3.854-1.732-5.878-1.787c-6.317-0.167-12.646-0.187-18.964-0.016
	c-3.812,0.104-4.888-0.594-2.782-4.438C87.72,434.951,98.726,415.111,110.493,395.703z"/>
<path fill-rule="evenodd" clip-rule="evenodd" fill="#0FBB30" d="M173.079,358.069c3.087,6.158,6.045,12.384,9.3,18.451
	c2.785,5.192,0.503,6.056-4.26,6.027c-20.204-0.129-40.409-0.055-60.615-0.056c-9.687,0-19.373,0-30.532,0
	c14.939-30.853,34.005-58.067,48.968-88.938C148.332,316.004,159.764,337.59,173.079,358.069z"/>
<path fill-rule="evenodd" clip-rule="evenodd" fill="#0FBB30" d="M467.26,357.746c0.882,7.427,6.121,12.854,9.04,19.352
	c1.876,4.177,1.725,5.475-3.182,5.454c-28.904-0.121-57.81-0.063-86.715-0.054c-3.917,0.002-5.836-0.194-3.427-5.283
	c3.086-6.519,7.079-12.541,9.852-19.193c12.869-20.497,24.62-41.644,36.568-64.046c3.271,5.326,5.501,10.024,8.033,14.61
	c8.808,15.951,18.104,31.633,27.18,47.438C465.24,357.122,466.042,357.685,467.26,357.746z"/>
<path fill-rule="evenodd" clip-rule="evenodd" fill="#0FBB30" d="M594.925,382.503c-19.987-0.005-39.977-0.11-59.962,0.06
	c-5.351,0.046-7.977-0.727-4.668-6.647c3.25-5.813,6.033-11.886,9.021-17.845c10.892-16.51,20.288-33.899,29.834-51.187
	c2.261-4.095,4.165-8.345,7.525-12.712c14.853,30.067,33.472,57.371,48.905,88.332C614.52,382.503,604.723,382.503,594.925,382.503z
	"/>
<path fill-rule="evenodd" clip-rule="evenodd" fill="#0FBB30" d="M319.568,358.021c2.771,6.653,6.761,12.683,9.852,19.198
	c2.425,5.113,0.455,5.281-3.439,5.277c-11.746-0.013-23.492-0.004-35.238-0.004c-16.941,0-33.884-0.127-50.824,0.071
	c-5.601,0.066-5.74-1.16-3.465-6.067c2.898-6.254,8.028-11.526,8.699-18.792c3.261-0.179,3.499-3.242,4.622-5.199
	c10.938-19.082,22.496-37.812,32.893-58.89C294.964,316.042,306.546,337.457,319.568,358.021z"/>
<path fill-rule="evenodd" clip-rule="evenodd" fill="#7C4723" d="M563.816,534.874c0.451-0.099,0.894-0.069,1.326,0.086
	c3.146,3.938,1.847,8.597,1.92,12.953c0.193,11.468,0.075,11.431,11.256,11.611c3.301,0.053,6.794-0.549,9.602,1.993
	c0.072,10.804,0.144,21.608,0.215,32.413c-7.949,0.012-15.896,0.023-23.845,0.035c-2.659-1.748-2.655-4.559-2.679-7.22
	c-0.134-15.021-0.155-30.042,0.011-45.063C561.648,539.237,561.709,536.697,563.816,534.874z"/>
<path fill-rule="evenodd" clip-rule="evenodd" fill="#7C4723" d="M147.267,534.944c0.439-0.156,0.886-0.182,1.338-0.074
	c2.259,2.045,2.168,4.832,2.189,7.486c0.12,14.553,0.114,29.106,0.005,43.659c-0.022,2.876,0.132,5.92-2.629,7.938
	c-7.964-0.008-15.929-0.016-23.894-0.023c0.066-10.805,0.133-21.61,0.199-32.415c2.589-2.396,5.844-1.97,8.933-1.988
	c12.484-0.074,11.765,0.74,11.918-12.307C145.375,543.082,144.191,538.644,147.267,534.944z"/>
<path fill-rule="evenodd" clip-rule="evenodd" fill="#563016" d="M147.267,534.944c0,6.777-0.319,13.576,0.105,20.328
	c0.331,5.265-1.706,6.713-6.635,6.366c-5.396-0.382-10.839-0.11-16.262-0.123c-0.087-8.887-0.175-17.775-0.262-26.662
	C131.901,534.387,139.586,534.225,147.267,534.944z"/>
<path fill-rule="evenodd" clip-rule="evenodd" fill="#563016" d="M587.92,561.518c-5.42,0.012-10.86-0.261-16.255,0.121
	c-4.926,0.347-6.962-1.096-6.63-6.361c0.426-6.748,0.104-13.545,0.106-20.318c7.677-0.757,15.358-0.561,23.04-0.104
	C588.094,543.743,588.008,552.63,587.92,561.518z"/>
<path fill-rule="evenodd" clip-rule="evenodd" fill="#0FBB30" d="M282.938,459.802c-18.065,0-36.131,0.038-54.195-0.019
	c-6.917-0.021-7.396-0.693-4.012-6.865c9.185-16.758,18.597-33.391,27.842-50.115c2.168-3.923,4.974-5.632,9.734-5.506
	c13.54,0.356,27.098,0.286,40.643,0.037c4.767-0.086,7.646,1.052,10.127,5.675c9.136,17.025,18.842,33.749,28.461,50.513
	c2.678,4.668,1.692,6.373-3.727,6.333C319.521,459.717,301.229,459.802,282.938,459.802z"/>
<path fill-rule="evenodd" clip-rule="evenodd" fill="#0FBB30" d="M428.728,459.803c-18.065-0.001-36.131-0.09-54.195,0.052
	c-5.546,0.044-6.258-1.818-3.651-6.378c9.814-17.171,19.57-34.377,29.136-51.687c1.772-3.208,3.813-4.475,7.446-4.435
	c14.676,0.161,29.355,0.132,44.032,0.016c3.259-0.026,5.44,0.841,7.138,3.854c8.051,14.293,16.808,28.187,24.102,42.909
	c1.596,3.221,3.41,6.345,5.295,9.409c2.845,4.627,1.618,6.37-3.751,6.312c-13.999-0.155-28.001-0.052-42.002-0.051
	C437.761,459.804,433.244,459.804,428.728,459.803z"/>
<path fill-rule="evenodd" clip-rule="evenodd" fill="#FEFEFE" d="M270.884,593.931c-16.456,0.004-32.913,0.009-49.37,0.015
	c-1.671-2.08-1.684-4.579-1.727-7.046c-0.267-15.253,0.342-30.501,0.266-45.755c-0.011-2.227-0.042-4.538,1.834-6.248
	c16.275-0.014,32.55-0.028,48.826-0.041c3.083,3.373,1.987,7.562,2.096,11.453c0.144,5.103,0.191,10.218-0.069,15.326
	c0.321,8.242,0.127,16.486,0.103,24.729C272.835,589.022,272.9,591.764,270.884,593.931z"/>
<path fill-rule="evenodd" clip-rule="evenodd" fill="#FEFEFE" d="M344.225,593.932c-16.457,0.003-32.913,0.006-49.37,0.008
	c-1.749-2.039-1.773-4.546-1.818-7.014c-0.278-15.265,0.339-30.524,0.263-45.788c-0.012-2.23-0.033-4.543,1.871-6.236
	c16.259,0.002,32.518,0.004,48.776,0.006c1.924,1.678,1.914,3.99,1.903,6.223c-0.076,15.272,0.547,30.541,0.26,45.813
	C346.063,589.412,346.029,591.921,344.225,593.932z"/>
<path fill-rule="evenodd" clip-rule="evenodd" fill="#FEFEFE" d="M417.539,593.939c-16.445-0.002-32.891-0.005-49.335-0.008
	c-1.49-1.598-1.812-3.606-1.828-5.646c-0.142-17.091-0.226-34.183,0.587-51.267c0.282-0.856,0.766-1.579,1.44-2.173
	c16.273,0.019,32.547,0.037,48.82,0.056c1.903,1.693,1.882,4.006,1.871,6.235c-0.076,15.265,0.541,30.524,0.263,45.789
	C419.313,589.394,419.288,591.9,417.539,593.939z"/>
<path fill-rule="evenodd" clip-rule="evenodd" fill="#FEFEFE" d="M490.88,593.945c-16.457-0.006-32.913-0.011-49.369-0.015
	c-2.317-2.593-1.959-5.813-1.964-8.887c-0.012-7.782-0.222-15.566,0.106-23.348c-0.269-6.456-0.146-12.914-0.07-19.37
	c0.03-2.638-0.131-5.412,2.097-7.471c16.276,0.013,32.551,0.027,48.826,0.041c1.876,1.71,1.846,4.021,1.835,6.248
	c-0.077,15.254,0.532,30.502,0.265,45.755C492.563,589.366,492.552,591.867,490.88,593.945z"/>
<path fill-rule="evenodd" clip-rule="evenodd" fill="#7C4723" d="M368.194,535.856c0.003,19.359,0.008,38.718,0.01,58.075
	c-7.994,0-15.987,0.002-23.98,0.002c-0.093-19.678-0.186-39.354-0.279-59.028c0.443-0.169,0.888-0.173,1.334-0.015
	c3.729,5.049,1.405,10.871,2.092,16.309c0.348,2.746-1.039,6.531,2.551,7.641c4.274,1.321,8.923,1.388,13.225-0.253
	c1.87-0.714,1.732-2.99,1.813-4.768c0.184-4.039-0.188-8.103,0.221-12.12C365.404,539.486,364.664,536.48,368.194,535.856z"/>
<path fill-rule="evenodd" clip-rule="evenodd" fill="#7C4723" d="M295.17,534.901c-0.104,19.681-0.209,39.36-0.314,59.04
	c-7.992-0.004-15.982-0.007-23.973-0.011c0.05-10.808,0.1-21.613,0.149-32.421c4.162-3.26,9.063-1.933,13.633-1.915
	c5.118,0.02,7.11-1.819,7.217-7.065c0.119-5.884-1.799-12.109,1.952-17.621C294.28,534.907,294.726,534.904,295.17,534.901z"/>
<path fill-rule="evenodd" clip-rule="evenodd" fill="#7C4723" d="M441.361,561.51c0.051,10.808,0.1,21.614,0.149,32.421
	c-7.991,0.003-15.982,0.007-23.973,0.011c-0.104-19.683-0.211-39.361-0.316-59.041c0.447,0.004,0.894,0.007,1.338,0.008
	c3.615,4.813,1.795,10.378,2,15.604c0.346,8.755,0.289,8.809,9.185,9.026C433.678,559.634,437.886,558.555,441.361,561.51z"/>
<path fill-rule="evenodd" clip-rule="evenodd" fill="#7C4723" d="M490.88,593.945c-0.126-19.684-0.251-39.368-0.375-59.051
	c0.446,0.013,0.892,0.021,1.338,0.031c3.475,4.62,1.821,9.977,1.98,15.006c0.295,9.419,0.157,9.37,9.359,9.592
	c4.174,0.099,8.622-0.996,12.336,2.068c2.081,10.833,3.278,21.646-0.708,32.342C506.834,593.938,498.856,593.941,490.88,593.945z"/>
<path fill-rule="evenodd" clip-rule="evenodd" fill="#7C4723" d="M221.888,534.896c-0.124,19.684-0.248,39.366-0.372,59.05
	c-7.979-0.005-15.956-0.009-23.934-0.013c-2.106-2.11-2.305-4.856-2.16-7.532c0.444-8.216-1.488-16.569,1.363-24.646
	c4.305-3.61,9.498-2.235,14.304-2.172c5.568,0.074,7.483-2.059,7.541-7.575c0.059-5.7-1.778-11.753,1.922-17.083
	C220.997,534.916,221.442,534.907,221.888,534.896z"/>
<path fill-rule="evenodd" clip-rule="evenodd" fill="#563015" d="M441.361,561.51c-5.648,0.015-11.308-0.186-16.941,0.112
	c-4.334,0.229-6.111-1.144-5.912-5.707c0.305-6.991,0.063-14.005,0.053-21.008c7.705-0.64,15.413-0.535,23.12-0.054
	C441.574,543.74,441.467,552.625,441.361,561.51z"/>
<path fill-rule="evenodd" clip-rule="evenodd" fill="#563015" d="M293.834,534.908c-0.01,7.004-0.253,14.018,0.052,21.008
	c0.2,4.566-1.581,5.935-5.914,5.706c-5.633-0.298-11.292-0.098-16.941-0.112c-0.106-8.885-0.213-17.771-0.319-26.656
	C278.422,534.368,286.129,534.269,293.834,534.908z"/>
<path fill-rule="evenodd" clip-rule="evenodd" fill="#563015" d="M514.654,561.518c-5.425,0.012-10.869-0.261-16.267,0.119
	c-4.939,0.349-6.958-1.124-6.634-6.379c0.417-6.754,0.093-13.555,0.088-20.334c5.875-0.198,11.75-0.398,17.626-0.599
	c1.824,0.171,3.646,0.342,5.471,0.514C518.099,543.766,518.488,552.664,514.654,561.518z"/>
<path fill-rule="evenodd" clip-rule="evenodd" fill="#563015" d="M220.552,534.926c-0.004,6.78-0.33,13.581,0.088,20.335
	c0.325,5.256-1.698,6.724-6.634,6.376c-5.398-0.38-10.842-0.107-16.266-0.119c-3.834-8.854-3.445-17.751-0.284-26.679
	c1.824-0.171,3.647-0.343,5.471-0.514C208.801,534.525,214.677,534.726,220.552,534.926z"/>
<path fill-rule="evenodd" clip-rule="evenodd" fill="#563015" d="M368.194,535.856c-2.39,6.56-0.877,13.351-0.985,20.016
	c-0.073,4.477-1.56,5.72-5.916,5.778c-15.972,0.215-15.967,0.364-15.972-15.243c-0.001-3.84-0.026-7.679-0.041-11.518
	c7.707-0.617,15.416-0.523,23.124-0.045C368.498,535.217,368.429,535.555,368.194,535.856z"/>
<path fill-rule="evenodd" clip-rule="evenodd" fill="#FEFEFE" d="M514.654,561.518c0.095-8.895,0.189-17.788,0.284-26.681
	c16.291,0.013,32.583,0.023,48.877,0.035c0.157,19.699,0.313,39.397,0.473,59.094c-16.491-0.01-32.983-0.021-49.476-0.032
	C514.76,583.129,514.706,572.322,514.654,561.518z"/>
<path fill-rule="evenodd" clip-rule="evenodd" fill="#FEFEFE" d="M197.456,534.839c0.095,8.893,0.189,17.786,0.284,26.679
	c-0.053,10.805-0.105,21.611-0.158,32.416c-16.469,0.008-32.938,0.016-49.409,0.022c0.144-19.697,0.289-39.394,0.434-59.088
	C164.89,534.859,181.172,534.849,197.456,534.839z"/>
</svg>
