<?xml version="1.0" encoding="utf-8"?>
<!-- Generator: Adobe Illustrator 16.0.0, SVG Export Plug-In . SVG Version: 6.00 Build 0)  -->
<!DOCTYPE svg PUBLIC "-//W3C//DTD SVG 1.1//EN" "http://www.w3.org/Graphics/SVG/1.1/DTD/svg11.dtd">
<svg version="1.1" id="图层_1" xmlns="http://www.w3.org/2000/svg" xmlns:xlink="http://www.w3.org/1999/xlink" x="0px" y="0px"
	 width="699px" height="564px" viewBox="4.83 72.33 699 564" enable-background="new 4.83 72.33 699 564" xml:space="preserve">
<path fill="#07A521" d="M702.33,632.769c-231.487,0-462.977,0-694.465,0c0-2.713,0-5.426,0-8.139
	c1.641-3.688,3.283-7.371,4.924-11.059c3.869-2.542,8.252-2.004,12.511-2.006c84.285-0.023,168.57-0.017,252.855-0.017
	c135.354,0,270.705-0.007,406.061,0.021c4.474,0.002,9.098-0.662,13.188,2.001c1.644,3.687,3.283,7.372,4.926,11.06
	C702.33,627.343,702.33,630.056,702.33,632.769z"/>
<path fill="#07A421" d="M171.979,356.053c12.362-20.823,24.648-41.688,36.201-64.182c12.24,21.773,24.056,42.795,35.874,63.817
	c2.431,4.209-0.553,7.271-2.311,10.531c-6.671,12.361-6.697,12.35,6.9,12.35c23.171,0,46.342,0.015,69.514-0.008
	c8.945-0.008,9.329-0.842,5.381-9.087c-2.069-4.322-6.203-7.929-5.069-13.471c12.789-20.551,24.552-41.701,36.629-64.232
	c12.077,22.531,23.838,43.684,36.631,64.232c1.198,3.472-1.027,6.046-2.422,8.769c-1.538,3-3.272,5.893-4.528,9.044
	c-1.306,3.277-0.084,4.645,3.219,4.702c1.352,0.023,2.7,0.049,4.051,0.049c24.527,0.002,49.058,0.017,73.585-0.006
	c8.564-0.008,8.603-0.136,4.919-8.133c-1.132-2.46-2.542-4.765-3.789-7.156c-1.251-2.398-2.587-4.856-0.603-7.543
	c11.031-21.271,24.456-41.188,35.414-64.416c12.056,22.935,24.278,43.879,36.643,64.74c1.867,4.861-1.979,7.973-3.797,11.559
	c-5.322,10.479-5.183,10.886,6.623,10.894c14.614,0.01,29.229-0.045,43.842,0.038c3.074,0.02,6.372-0.574,8.94,1.942
	c2.333,4.394,4.665,8.787,6.998,13.182c-0.587,4.834-4.592,3.485-7.244,3.557c-11.741,0.31-23.499,0.38-35.233,0.029
	c-6.451-0.191-10.443,2.193-13.589,7.806c-8.283,14.773-16.839,29.396-24.699,44.404c-2.921,5.575-2.537,6.313,4.1,6.339
	c23.944,0.097,47.891-0.05,71.833,0.122c3.771,0.025,8.343-1.577,10.871,3.168c3.02,5.397,7.081,10.234,8.768,16.349
	c-2.639,2.428-5.937,1.829-9.034,1.838c-20.559,0.063-41.118,0.189-61.673-0.06c-6.8-0.083-11.216,1.998-14.733,8.247
	c-7.203,12.792-13.808,25.911-21.261,38.558c-6.081,10.32-8.339,10.233-14.276,0.075c-7.296-12.479-13.645-25.474-20.909-37.978
	c-3.563-6.133-7.806-9.087-15.147-8.944c-19.873,0.386-39.766,0.438-59.635-0.021c-7.867-0.182-12.408,2.819-16.182,9.498
	c-7.331,12.979-13.895,26.373-21.574,39.155c-4.813,8.014-7.412,8.058-12.106,0.175c-7.975-13.389-14.762-27.434-22.678-40.863
	c-3.23-5.48-7.188-7.981-13.636-7.903c-20.555,0.25-41.117,0.286-61.671-0.015c-7.072-0.103-11.152,2.942-14.571,8.797
	c-7.179,12.292-13.334,25.14-20.614,37.367c-0.808,1.357-1.483,2.797-2.376,4.104c-3.823,5.602-6.369,5.688-10.067,0.117
	c-3.499-5.271-6.696-10.768-9.45-16.44c-4.449-9.167-10.055-17.671-14.708-26.696c-2.76-5.357-6.776-7.231-12.571-7.196
	c-21.235,0.133-42.471,0.097-63.706,0.013c-3.064-0.014-6.413,0.729-8.92-1.994c3.072-5.398,6.144-10.797,9.216-16.195
	c2.09-4.273,6.137-3.15,9.523-3.171c23.261-0.133,46.522-0.063,69.784-0.068c1.807,0,3.613-0.012,5.419-0.051
	c3.993-0.088,4.552-1.786,2.755-5.15c-8.621-16.136-17.582-32.074-26.829-47.859c-2.52-4.301-6.133-5.479-10.769-5.45
	c-12.194,0.077-24.394,0.205-36.583-0.104c-2.65-0.067-6.647,1.284-7.25-3.537c2.336-4.404,4.674-8.807,7.01-13.211
	c2.575-2.504,5.87-1.914,8.942-1.931c15.732-0.085,31.464,0.03,47.196-0.068c7.406-0.047,7.74-1.034,4.819-7.89
	C175.343,365.851,170.278,362.171,171.979,356.053z"/>
<path fill="#0FBB30" d="M94.126,475.274c24.623,0.055,49.247,0.244,73.868,0.069c6.179-0.044,9.786,2.07,12.73,7.706
	c7.597,14.536,15.915,28.697,24.006,42.977c3.377,5.959,4.28,6.029,7.624,0.085c7.495-13.325,15.077-26.618,22.055-40.214
	c3.808-7.42,8.499-10.957,17.386-10.673c20.989,0.667,42.014,0.309,63.022,0.148c5.499-0.041,9.161,1.53,11.934,6.765
	c7.89,14.89,16.347,29.48,24.633,44.16c0.94,1.669,1.236,4.314,3.824,4.19c2.465-0.118,2.762-2.711,3.711-4.396
	c8.488-15.083,17.012-30.148,25.312-45.335c2.144-3.922,5.183-5.332,9.343-5.328c23.044,0.019,46.088,0.15,69.129-0.089
	c6.038-0.063,9.027,3.354,11.513,7.814c7.438,13.358,14.76,26.782,22.145,40.17c0.869,1.574,1.863,3.08,2.771,4.636
	c2.068,3.544,3.623,3.146,5.537-0.318c8.266-14.956,16.999-29.661,24.906-44.8c2.993-5.73,6.783-7.543,12.859-7.491
	c24.396,0.207,48.796,0.086,73.194,0.088c0.484,0.751,0.971,1.501,1.454,2.252c0.052,5.079-3.891,4.84-7.088,4.96
	c-9.007,0.341-18.023,0.113-27.039,0.132c-12.167,0.024-24.339,0.146-36.504-0.05c-6.055-0.098-9.964,2.106-13.068,7.52
	c-6.729,11.729-12.506,23.972-19.563,35.509c-1.641,2.684-2.944,5.602-5.641,7.493c-5.614,2.008-11.424,0.944-17.159,1.093
	c-0.846,0.006-1.688,0.008-2.531,0.03c-15.864,0.24-31.728,0.274-47.587,0.005c-7.634,0.142-15.27,0.21-22.903-0.021
	c-0.855-0.001-1.71-0.004-2.564,0.016c-15.92,0.241-31.838,0.295-47.754-0.009c-7.621,0.087-15.244,0.27-22.867-0.008
	c-0.851-0.002-1.7-0.007-2.551,0.012c-15.787,0.225-31.573,0.259-47.359,0.001c-0.849-0.008-1.699-0.017-2.549-0.004
	c-7.628,0.207-15.257,0.177-22.888,0.013c-15.852,0.243-31.703,0.241-47.549,0.019c-0.835-0.021-1.675-0.045-2.511-0.042
	c-5.733-0.116-11.526,0.778-17.179-0.903c-6.369-5.457-9.128-13.301-12.998-20.334c-4.242-7.712-8.745-15.283-12.79-23.098
	c-2.711-5.234-6.695-7.332-12.555-7.291c-20.543,0.143-41.089,0.172-61.631-0.037c-3.661-0.037-8.576,1.167-9.128-5.002
	C93.458,476.888,93.792,476.081,94.126,475.274z"/>
<path fill="#0FBB30" d="M697.404,613.571c-2.936,0.067-5.871,0.194-8.807,0.194c-222.334,0.009-444.668,0.009-667.003,0
	c-2.936,0-5.871-0.126-8.806-0.193c8.303-14.871,21.432-21.263,37.986-21.378c24.134-0.168,48.269-0.194,72.403-0.28
	c7.932-3.733,16.319-1.363,24.495-1.839c16.164-0.256,32.328-0.289,48.491,0c8.249-0.213,16.497-0.23,24.746-0.001
	c16.166-0.256,32.331-0.289,48.496,0c8.249-0.212,16.499-0.229,24.748,0c16.167-0.256,32.332-0.289,48.497,0
	c8.249-0.212,16.499-0.229,24.748,0c16.166-0.256,32.332-0.289,48.497,0c8.249-0.212,16.498-0.229,24.748,0
	c16.166-0.256,32.331-0.289,48.497,0c8.249-0.214,16.499-0.229,24.75,0c16.181-0.257,32.361-0.288,48.543-0.002
	c8.211,0.472,16.637-1.911,24.602,1.842c24.368,0.086,48.738,0.115,73.106,0.28C676.533,592.306,689.277,598.962,697.404,613.571z"
	/>
<path fill="#E9B832" d="M206.46,89.583c-36.864,12.958-53.866,37.498-47.887,69.483c5.109,27.331,28.057,49.198,62.407,46.807
	c-6.673,16.895-39.51,31.229-67.505,29.465c-32.593-2.052-61.807-27.503-69.776-60.788c-8.242-34.424,7.11-71.512,37.033-89.474
	C147.276,69.144,185.634,71.16,206.46,89.583z"/>
<path fill="#0FBB30" d="M508.368,532.309c8.575-15.742,17.141-31.49,25.736-47.222c2.177-3.984,5.974-4.255,9.936-4.248
	c21.648,0.031,43.296,0.027,64.945,0c3.066-0.005,6.524,0.795,8.097-3.146c11.619,17.155,19.792,36.254,31.701,55.147
	c-21.413,0-41.558,0-61.703,0c-7.354,3.104-15.049,1.138-22.587,1.521c-0.852-0.001-1.703-0.004-2.555,0.015
	c-15.858,0.205-31.714,0.334-47.57-0.048C512.186,534.195,509.949,534.218,508.368,532.309z"/>
<path fill="#0FBB30" d="M93.124,477.694c1.561,3.945,5.018,3.14,8.076,3.145c21.381,0.028,42.764,0.188,64.141-0.102
	c5.692-0.077,9.372,1.872,12,6.729c8.106,14.978,16.316,29.897,24.486,44.843c-1.582,1.884-3.8,1.861-5.966,2.004
	c-15.817,0.363-31.635,0.29-47.454,0.063c-0.852-0.009-1.705-0.017-2.557-0.004c-7.586-0.392-15.335,1.604-22.734-1.531
	c-20.139,0-40.278,0-61.661,0C73.211,514.114,81.458,494.947,93.124,477.694z"/>
<path fill="#0FBB30" d="M606.86,459.092c-2.39-1.802-5.177-1.29-7.85-1.292c-25.981-0.021-51.964,0.004-77.944-0.048
	c-2.15-0.004-4.953,0.95-6.155-1.53c-0.99-2.049,1.204-3.587,2.173-5.312c9.142-16.273,18.355-32.513,27.232-48.934
	c2.678-4.957,5.968-6.915,11.709-6.712c12.637,0.449,25.3,0.179,37.951,0.104c2.364-0.015,5.067,0.865,6.847-1.702
	c11.778,19.408,22.768,39.261,33.659,59.176c2.116,3.869,0.992,4.532-2.794,4.434c-6.318-0.167-12.647-0.152-18.966,0.017
	C610.704,457.348,608.053,456.075,606.86,459.092z"/>
<path fill="#0FBB30" d="M109.394,393.687c1.786,2.558,4.49,1.669,6.853,1.683c13.326,0.074,26.656,0.187,39.979-0.059
	c3.851-0.07,6.441,1.047,8.298,4.344c10.039,17.829,20.181,35.601,30.137,53.474c2.709,4.865-1.247,4.617-4.18,4.633
	c-12.198,0.061-24.396,0.025-36.593,0.026c-14.457,0-28.913-0.002-43.369,0.003c-2.465,0.001-5-0.346-7.175,1.289
	c-1.21-2.995-3.854-1.731-5.878-1.787c-6.317-0.167-12.646-0.187-18.964-0.016c-3.812,0.104-4.888-0.594-2.782-4.438
	C86.621,432.935,97.626,413.095,109.394,393.687z"/>
<path fill="#0FBB30" d="M171.979,356.053c3.087,6.157,6.045,12.384,9.3,18.45c2.785,5.192,0.503,6.057-4.26,6.027
	c-20.204-0.129-40.409-0.055-60.615-0.056c-9.687,0-19.373,0-30.532,0c14.939-30.854,34.005-58.067,48.968-88.938
	C147.232,313.987,158.665,335.573,171.979,356.053z"/>
<path fill="#0FBB30" d="M466.16,355.729c0.882,7.427,6.121,12.854,9.04,19.352c1.876,4.178,1.726,5.476-3.182,5.454
	c-28.904-0.121-57.81-0.063-86.716-0.054c-3.916,0.002-5.836-0.194-3.426-5.283c3.086-6.519,7.078-12.541,9.852-19.192
	c12.869-20.497,24.62-41.645,36.567-64.046c3.271,5.326,5.502,10.024,8.033,14.61c8.809,15.951,18.104,31.633,27.181,47.438
	C464.141,355.105,464.942,355.668,466.16,355.729z"/>
<path fill="#0FBB30" d="M593.825,380.486c-19.986-0.005-39.977-0.11-59.962,0.06c-5.351,0.047-7.977-0.727-4.668-6.646
	c3.25-5.813,6.033-11.886,9.021-17.845c10.892-16.511,20.288-33.899,29.834-51.188c2.261-4.095,4.165-8.345,7.524-12.712
	c14.854,30.067,33.473,57.371,48.905,88.332C613.421,380.486,603.623,380.486,593.825,380.486z"/>
<path fill="#0FBB30" d="M318.468,356.005c2.771,6.652,6.761,12.683,9.852,19.197c2.425,5.113,0.455,5.281-3.439,5.277
	c-11.746-0.013-23.492-0.004-35.238-0.004c-16.941,0-33.884-0.127-50.824,0.071c-5.601,0.065-5.74-1.16-3.465-6.067
	c2.898-6.254,8.028-11.526,8.699-18.792c3.261-0.179,3.499-3.242,4.622-5.199c10.938-19.082,22.496-37.812,32.893-58.89
	C293.864,314.025,305.446,335.44,318.468,356.005z"/>
<path fill="#7C4723" d="M562.717,532.857c0.45-0.099,0.894-0.069,1.325,0.086c3.146,3.938,1.848,8.597,1.92,12.953
	c0.193,11.468,0.075,11.431,11.257,11.611c3.301,0.053,6.794-0.55,9.602,1.992c0.072,10.805,0.144,21.608,0.215,32.413
	c-7.949,0.013-15.896,0.023-23.845,0.035c-2.659-1.748-2.655-4.559-2.679-7.22c-0.135-15.021-0.155-30.042,0.011-45.063
	C560.549,537.221,560.609,534.681,562.717,532.857z"/>
<path fill="#7C4723" d="M146.167,532.928c0.439-0.156,0.886-0.183,1.338-0.074c2.259,2.045,2.168,4.832,2.189,7.486
	c0.12,14.553,0.114,29.105,0.005,43.658c-0.022,2.876,0.132,5.92-2.629,7.938c-7.964-0.008-15.929-0.016-23.894-0.023
	c0.066-10.805,0.133-21.609,0.199-32.415c2.589-2.396,5.844-1.97,8.933-1.987c12.484-0.074,11.765,0.739,11.918-12.308
	C144.275,541.065,143.091,536.627,146.167,532.928z"/>
<path fill="#563016" d="M146.167,532.928c0,6.776-0.319,13.575,0.105,20.327c0.331,5.266-1.706,6.714-6.635,6.366
	c-5.396-0.382-10.839-0.109-16.262-0.123c-0.087-8.887-0.175-17.774-0.262-26.661C130.801,532.37,138.486,532.208,146.167,532.928z"
	/>
<path fill="#563016" d="M586.82,559.501c-5.42,0.013-10.86-0.261-16.255,0.121c-4.926,0.348-6.962-1.096-6.63-6.36
	c0.426-6.748,0.104-13.545,0.105-20.318c7.678-0.757,15.358-0.561,23.04-0.104C586.994,541.727,586.908,550.613,586.82,559.501z"/>
<path fill="#0FBB30" d="M281.838,457.785c-18.065,0-36.131,0.038-54.195-0.019c-6.917-0.021-7.396-0.693-4.012-6.865
	c9.185-16.758,18.597-33.391,27.842-50.115c2.168-3.923,4.974-5.632,9.734-5.506c13.54,0.356,27.098,0.286,40.643,0.037
	c4.767-0.086,7.646,1.052,10.127,5.675c9.136,17.025,18.842,33.749,28.461,50.513c2.678,4.669,1.692,6.373-3.727,6.334
	C318.421,457.7,300.129,457.785,281.838,457.785z"/>
<path fill="#0FBB30" d="M427.628,457.786c-18.064-0.001-36.13-0.09-54.194,0.053c-5.547,0.044-6.258-1.818-3.651-6.379
	c9.813-17.171,19.57-34.377,29.136-51.687c1.772-3.208,3.813-4.475,7.446-4.435c14.676,0.16,29.355,0.132,44.032,0.016
	c3.259-0.026,5.439,0.841,7.138,3.854c8.051,14.293,16.809,28.188,24.103,42.909c1.596,3.222,3.409,6.345,5.295,9.409
	c2.845,4.627,1.618,6.37-3.751,6.313c-13.999-0.155-28.001-0.053-42.002-0.052C436.661,457.787,432.145,457.787,427.628,457.786z"/>
<path fill="#FEFEFE" d="M269.784,591.914c-16.456,0.005-32.913,0.01-49.37,0.016c-1.671-2.08-1.684-4.579-1.727-7.046
	c-0.267-15.253,0.342-30.501,0.266-45.756c-0.011-2.227-0.042-4.537,1.834-6.247c16.275-0.015,32.55-0.028,48.826-0.041
	c3.083,3.372,1.987,7.562,2.096,11.452c0.144,5.104,0.191,10.219-0.069,15.326c0.321,8.242,0.127,16.486,0.103,24.729
	C271.735,587.005,271.8,589.747,269.784,591.914z"/>
<path fill="#FEFEFE" d="M343.125,591.915c-16.457,0.003-32.913,0.006-49.37,0.009c-1.749-2.039-1.773-4.547-1.818-7.015
	c-0.278-15.265,0.339-30.523,0.263-45.788c-0.012-2.229-0.033-4.543,1.871-6.235c16.259,0.002,32.518,0.004,48.776,0.006
	c1.924,1.678,1.914,3.99,1.903,6.223c-0.076,15.272,0.547,30.541,0.26,45.813C344.963,587.396,344.929,589.904,343.125,591.915z"/>
<path fill="#FEFEFE" d="M416.439,591.923c-16.445-0.002-32.891-0.006-49.335-0.009c-1.49-1.598-1.812-3.605-1.828-5.646
	c-0.142-17.091-0.226-34.184,0.587-51.268c0.282-0.855,0.766-1.578,1.439-2.173c16.273,0.02,32.548,0.037,48.82,0.057
	c1.903,1.692,1.883,4.006,1.871,6.234c-0.076,15.266,0.541,30.524,0.264,45.789C418.213,587.377,418.188,589.884,416.439,591.923z"
	/>
<path fill="#FEFEFE" d="M489.78,591.929c-16.457-0.006-32.913-0.012-49.369-0.016c-2.316-2.593-1.959-5.813-1.964-8.887
	c-0.012-7.782-0.222-15.566,0.106-23.348c-0.27-6.456-0.146-12.914-0.07-19.37c0.03-2.639-0.131-5.412,2.097-7.472
	c16.276,0.014,32.552,0.027,48.826,0.041c1.876,1.711,1.846,4.021,1.835,6.248c-0.077,15.254,0.532,30.502,0.266,45.756
	C491.464,587.35,491.452,589.851,489.78,591.929z"/>
<path fill="#7C4723" d="M367.094,533.84c0.004,19.358,0.009,38.718,0.011,58.074c-7.994,0-15.987,0.002-23.98,0.002
	c-0.093-19.678-0.186-39.354-0.279-59.027c0.443-0.169,0.888-0.173,1.334-0.016c3.729,5.05,1.405,10.871,2.092,16.31
	c0.348,2.746-1.039,6.531,2.551,7.641c4.273,1.321,8.924,1.389,13.225-0.253c1.871-0.714,1.732-2.99,1.813-4.768
	c0.185-4.039-0.188-8.104,0.222-12.12C364.305,537.47,363.564,534.464,367.094,533.84z"/>
<path fill="#7C4723" d="M294.07,532.885c-0.104,19.681-0.209,39.359-0.314,59.04c-7.992-0.005-15.982-0.008-23.973-0.012
	c0.05-10.808,0.1-21.612,0.149-32.421c4.162-3.26,9.063-1.933,13.633-1.915c5.118,0.021,7.11-1.818,7.217-7.064
	c0.119-5.885-1.799-12.109,1.952-17.621C293.18,532.891,293.626,532.888,294.07,532.885z"/>
<path fill="#7C4723" d="M440.262,559.493c0.051,10.809,0.1,21.614,0.148,32.421c-7.991,0.003-15.981,0.008-23.973,0.012
	c-0.104-19.684-0.211-39.361-0.316-59.041c0.447,0.004,0.895,0.007,1.338,0.008c3.615,4.813,1.795,10.378,2,15.604
	c0.346,8.755,0.289,8.81,9.186,9.026C432.578,557.617,436.786,556.538,440.262,559.493z"/>
<path fill="#7C4723" d="M489.78,591.929c-0.126-19.685-0.251-39.368-0.375-59.052c0.446,0.014,0.893,0.021,1.338,0.031
	c3.476,4.62,1.821,9.978,1.98,15.006c0.295,9.419,0.157,9.37,9.358,9.593c4.175,0.099,8.622-0.996,12.337,2.067
	c2.08,10.833,3.277,21.646-0.709,32.342C505.734,591.921,497.757,591.925,489.78,591.929z"/>
<path fill="#7C4723" d="M220.789,532.88c-0.124,19.684-0.248,39.365-0.372,59.05c-7.979-0.005-15.956-0.009-23.934-0.014
	c-2.106-2.109-2.305-4.855-2.16-7.531c0.444-8.217-1.488-16.569,1.363-24.646c4.305-3.61,9.498-2.235,14.304-2.172
	c5.568,0.074,7.483-2.059,7.541-7.575c0.059-5.7-1.778-11.753,1.922-17.083C219.897,532.899,220.342,532.891,220.789,532.88z"/>
<path fill="#563015" d="M440.262,559.493c-5.648,0.016-11.309-0.186-16.941,0.112c-4.334,0.229-6.111-1.144-5.912-5.707
	c0.305-6.991,0.063-14.005,0.053-21.008c7.705-0.641,15.413-0.535,23.12-0.054C440.475,541.724,440.367,550.608,440.262,559.493z"/>
<path fill="#563015" d="M292.734,532.892c-0.01,7.004-0.253,14.018,0.052,21.008c0.2,4.566-1.581,5.935-5.914,5.706
	c-5.633-0.298-11.292-0.098-16.941-0.112c-0.106-8.885-0.213-17.771-0.319-26.656C277.322,532.352,285.029,532.252,292.734,532.892z
	"/>
<path fill="#563015" d="M513.555,559.501c-5.425,0.013-10.869-0.261-16.268,0.119c-4.938,0.35-6.958-1.124-6.634-6.379
	c0.417-6.754,0.093-13.555,0.088-20.334c5.875-0.198,11.75-0.397,17.626-0.599c1.824,0.171,3.646,0.342,5.472,0.514
	C516.999,541.749,517.389,550.647,513.555,559.501z"/>
<path fill="#563015" d="M219.452,532.909c-0.004,6.78-0.33,13.581,0.088,20.335c0.325,5.256-1.698,6.725-6.634,6.376
	c-5.398-0.38-10.842-0.106-16.266-0.119c-3.834-8.854-3.445-17.751-0.284-26.679c1.824-0.171,3.647-0.343,5.471-0.514
	C207.701,532.509,213.577,532.709,219.452,532.909z"/>
<path fill="#563015" d="M367.094,533.84c-2.389,6.56-0.877,13.351-0.984,20.016c-0.072,4.477-1.561,5.72-5.916,5.778
	c-15.972,0.215-15.967,0.363-15.972-15.243c-0.001-3.84-0.026-7.679-0.041-11.519c7.707-0.616,15.416-0.522,23.124-0.045
	C367.398,533.2,367.33,533.538,367.094,533.84z"/>
<path fill="#FEFEFE" d="M513.555,559.501c0.095-8.895,0.188-17.787,0.284-26.681c16.291,0.013,32.582,0.023,48.877,0.035
	c0.156,19.699,0.313,39.396,0.473,59.094c-16.491-0.01-32.983-0.021-49.477-0.032C513.66,581.112,513.606,570.306,513.555,559.501z"
	/>
<path fill="#FEFEFE" d="M196.356,532.822c0.095,8.894,0.189,17.786,0.284,26.679c-0.053,10.806-0.105,21.611-0.158,32.416
	c-16.469,0.009-32.938,0.017-49.409,0.022c0.144-19.697,0.289-39.394,0.434-59.088C163.791,532.843,180.072,532.832,196.356,532.822
	z"/>
</svg>
