<?xml version="1.0" encoding="utf-8"?>
<!-- Generator: Adobe Illustrator 16.0.0, SVG Export Plug-In . SVG Version: 6.00 Build 0)  -->
<!DOCTYPE svg PUBLIC "-//W3C//DTD SVG 1.1//EN" "http://www.w3.org/Graphics/SVG/1.1/DTD/svg11.dtd">
<svg version="1.1" id="图层_1" xmlns="http://www.w3.org/2000/svg" xmlns:xlink="http://www.w3.org/1999/xlink" x="0px" y="0px"
	 width="2000px" height="2000px" viewBox="0 0 2000 2000" enable-background="new 0 0 2000 2000" xml:space="preserve">
<path fill-rule="evenodd" clip-rule="evenodd" fill="#FEFEFE" d="M508.417,388.917c0-122.952,0.025-245.903-0.102-368.855
	c-0.005-4.584,0.441-6.217,5.831-6.186c49.731,0.291,99.465,0.171,149.199,0.171c0.454,0.749,0.346,1.405-0.318,1.973
	c-4.77,1.892-9.86,2.028-14.855,2.679c-33.874,4.399-65.106,14.919-89.651,40c-20.573,21.021-30.33,47.335-35.758,75.646
	c-4.275,22.296-4.506,44.81-4.099,67.386c0.22,4.54,0.144,9.075,0.071,13.615c0.42,53.941,0.128,107.877,0.163,161.813
	c0.003,5.775-1.522,10.523-7.855,12.206C510.109,389.554,509.234,389.402,508.417,388.917z"/>
<path fill-rule="evenodd" clip-rule="evenodd" fill="#96A09E" d="M663.215,16.698c0.128-0.414,0.171-0.836,0.13-1.268
	c225.014,0,450.03,0,675.043,0c0.036,0.408,0.095,0.814,0.179,1.215c-2.482,2.739-5.845,2.289-8.988,2.339
	c-10.764,0.173-21.525-0.518-32.29-0.121c-4.928,0.222-9.854,0.216-14.782-0.004c-201.796,0.495-403.593,0.1-605.39,0.164
	C672.428,19.025,667.357,20.351,663.215,16.698z"/>
<path fill-rule="evenodd" clip-rule="evenodd" fill="#FBFCFC" d="M508.417,527.246c0-23.055,0-46.108,0-69.164
	c0.75-0.492,1.572-0.715,2.468-0.674c5.8,0.47,7.803,4.182,7.856,9.397c0.177,17.242,0.177,34.483,0,51.723
	c-0.054,5.212-2.048,8.933-7.855,9.406C509.988,527.974,509.166,527.742,508.417,527.246z"/>
<path fill-rule="evenodd" clip-rule="evenodd" fill="#FCFCFC" d="M508.417,708.457c0-16.599,0-33.199,0-49.799
	c0.739-0.478,1.533-0.6,2.384-0.377c5.703,1.634,8,5.537,7.945,11.332c-0.094,9.643,0.078,19.288-0.077,28.931
	c-0.086,5.394-2.155,9.34-7.886,10.53C509.92,709.153,509.132,708.945,508.417,708.457z"/>
<path fill-rule="evenodd" clip-rule="evenodd" fill="#C4C9C8" d="M508.417,708.457c0.442-0.104,0.886-0.114,1.331-0.028
	c3.476,2.806,3.557,6.837,3.574,10.715c0.163,37.007,0.143,74.013,0.01,111.02c-0.013,3.637,0.02,7.491-3.724,9.803l-0.607,0.089
	l-0.584-0.187C508.417,796.064,508.417,752.261,508.417,708.457z"/>
<path fill-rule="evenodd" clip-rule="evenodd" fill="#C4C9C8" d="M509.569,658.767l-0.592,0.113l-0.561-0.222
	c0-43.805,0-87.607,0-131.412c0.442-0.104,0.886-0.113,1.331-0.028c3.477,2.806,3.557,6.838,3.574,10.718
	c0.163,37.017,0.146,74.034,0.008,111.052C513.317,652.624,513.35,656.484,509.569,658.767z"/>
<path fill-rule="evenodd" clip-rule="evenodd" fill="#C3C9C8" d="M509.776,458.096l-0.68,0.019l-0.68-0.032
	c0-23.056,0-46.109,0-69.165c0.456-0.045,0.91-0.045,1.366-0.001c3.593,1.019,3.073,4.292,3.165,6.711
	c0.688,18.151,0.485,36.31,0.143,54.466C513.034,453.074,512.436,456.074,509.776,458.096z"/>
<path fill-rule="evenodd" clip-rule="evenodd" fill="#5F6D69" d="M509.776,458.096c2.793-23.06,2.84-46.119,0.006-69.18
	c5.728-2.147,6.968-6.245,6.937-12.218c-0.265-51.286-0.156-102.571-0.14-153.858c0.001-2.752,0.179-5.505,0.275-8.256
	c2.635-1.953,5.155-1.956,7.545,0.426c1.991,3.641,1.475,7.632,1.478,11.514c0.042,40.568,0.025,81.135,0.025,121.701
	c0,471.821,0.003,943.643-0.039,1415.463c0,5.013,0.885,10.169-1.419,14.994c-2.384,2.455-4.926,2.453-7.59,0.479
	c-0.096-3.222-0.275-6.44-0.275-9.662c-0.013-304.708-0.021-609.418,0.047-914.128c0.001-6.397,0.86-12.782-7.019-15.405
	c1.659-4.101,1.965-8.37,1.955-12.764c-0.072-32.345-0.032-64.692-0.05-97.037c-0.004-7.29,0.551-14.633-1.765-21.737
	c5.668-1.691,7.384-5.412,6.968-11.26c-0.55-7.717-0.366-15.51-0.063-23.253c0.25-6.422,0.67-12.608-7.083-15.148
	c1.574-3.874,2.016-7.88,2.004-12.067c-0.089-32.58-0.043-65.16-0.06-97.74c-0.004-7.291,0.534-14.634-1.766-21.741
	c5.594-1.323,7.119-4.796,6.976-10.469c-0.405-16.062-0.401-32.149-0.002-48.21C516.862,462.893,515.36,459.413,509.776,458.096z"/>
<path fill-rule="evenodd" clip-rule="evenodd" fill="#596561" d="M1485.031,1779.128c-1.864-0.027-3.727-0.055-5.589-0.081
	c-2.074-2.22-2.101-5.024-2.182-7.792c-0.104-3.455-0.048-6.913-0.048-10.37c0-509.531-0.004-1019.061,0.042-1528.591
	c0.001-5.739-0.784-11.511,0.372-17.235c2.354-2.628,4.9-2.188,7.525-0.465c1.635,2.297,0.821,4.917,0.821,7.367
	c0.042,516.628,0.042,1033.255-0.008,1549.883C1485.966,1774.262,1486.928,1776.911,1485.031,1779.128z"/>
<path fill-rule="evenodd" clip-rule="evenodd" fill="#5C6966" d="M1478.125,1792.913c2.307,0.01,4.614,0.02,6.918,0.03
	c2.068,12.545,1.111,25.135,0.292,37.684c-1.92,29.501-8.516,57.735-23.923,83.374c-21.813,36.302-55.725,54.178-95.793,62.499
	c-16.974,3.525-34.192,4.717-51.497,4.719c-196.194,0.011-392.391,0.009-588.585,0c-1.839,0-3.676-0.169-5.513-0.259
	c-1.917-2.434-1.902-4.866,0-7.298c4.268-2.504,8.987-1.594,13.526-1.595c192.223-0.045,384.444,0.049,576.669-0.145
	c26.096-0.025,51.995-2.762,76.912-11.421c41.974-14.59,68.082-44.022,80.625-86.138c6.891-23.135,8.939-46.844,8.329-70.873
	C1475.993,1799.867,1475.404,1796.041,1478.125,1792.913z"/>
<path fill-rule="evenodd" clip-rule="evenodd" fill="#5E6C68" d="M706.263,1980.959c-29.314,0.989-58.418-0.253-86.94-7.966
	c-53.517-14.474-84.781-49.768-96.688-103.206c-5.647-25.345-6.713-51.036-5.771-76.877c2.143-1.792,4.417-1.815,6.79-0.514
	c2.664,3.161,1.883,6.997,1.861,10.59c-0.13,21.449,1.469,42.722,5.866,63.752c7.247,34.657,24.104,63.016,54.64,82.018
	c19.713,12.267,41.773,17.924,64.602,20.619c15.746,1.86,31.581,2.79,47.455,2.928c3.044,0.026,6.586-0.879,8.696,2.596
	c-0.206,3.746-3.096,2.627-5.116,2.655c-5.788,0.086-11.577,0.137-17.367,0.105c6.462-0.2,12.928,0.014,19.392,0.026
	C705.779,1977.688,707.394,1978.3,706.263,1980.959z"/>
<path fill-rule="evenodd" clip-rule="evenodd" fill="#5A6864" d="M1296.928,15.646c13.88-0.127,27.759-0.256,41.639-0.384
	c32.063,2.236,62.716,9.225,89.731,27.648c29.489,20.114,44.167,49.703,51.918,83.357c5.454,23.681,6.35,47.818,5.768,72.027
	c-0.021,0.851-0.516,1.691-0.791,2.535c-2.157,1.629-4.439,1.936-6.87,0.656c-3.099-3.258-2.16-7.38-2.086-11.165
	c0.456-22.85-1.25-45.409-6.805-67.701c-11.868-47.624-41.171-78.068-88.507-91.017c-17.375-4.751-35.057-7.267-53.151-7.49
	c-10.247-0.125-20.607-0.375-30.718-2.647c-0.933-2.861,1.277-2.951,2.997-3.152c2.499-0.293,5.035-0.071,7.554-0.118
	C1299.677,18.116,1299.677,18.116,1296.928,15.646z"/>
<path fill-rule="evenodd" clip-rule="evenodd" fill="#91A19B" d="M1490.904,598.163c4.725,4.941,4.81,9.65,4.817,14.035
	c0.114,65.926,0.097,131.851,0.02,197.777c-0.002,3.172-0.763,6.361-1.351,9.508c-0.211,1.144-1.174,2.097-2.454,1.973
	c-1.599-0.154-1.345-1.608-1.359-2.669c-0.044-2.994,0.037-5.992,0.035-8.989c-0.01-68-0.03-136-0.034-204.001
	C1490.578,603.799,1490.745,601.8,1490.904,598.163z"/>
<path fill-rule="evenodd" clip-rule="evenodd" fill="#39413E" d="M706.263,1980.959c-0.448-3.408-3.099-2.708-5.255-2.729
	c-6.074-0.058-12.149-0.021-18.225-1.27c6.091,0,12.183,0.043,18.273-0.021c2.141-0.022,4.863,0.687,4.995-2.905
	c-1.593-2.126-1.77-4.291-0.177-6.504c4.847,0.002,9.694,0.005,14.542,0.006c1.574,2.199,1.433,4.355-0.157,6.479
	c-0.078,2.314-0.156,4.63-0.235,6.945C715.437,1980.96,710.85,1980.959,706.263,1980.959z"/>
<path fill-rule="evenodd" clip-rule="evenodd" fill="#3B4341" d="M523.757,1793.115c-2.298-0.068-4.595-0.137-6.894-0.205
	c-0.002-4.583-0.005-9.167-0.008-13.749c2.29-0.057,4.579-0.116,6.868-0.173c2.179-1.64,4.383-1.833,6.622-0.121
	c-0.007,4.79-0.015,9.579-0.022,14.368C528.103,1794.903,525.917,1794.737,523.757,1793.115z"/>
<path fill-rule="evenodd" clip-rule="evenodd" fill="#39413E" d="M1478.066,200.756c2.375,0.024,4.752,0.05,7.126,0.074
	c-0.014,4.587-0.026,9.176-0.04,13.763c-2.362,0.028-4.725,0.057-7.087,0.087c-1.291,1.113-2.618,1.125-3.977,0.127
	c0.001-4.737,0.001-9.474,0.001-14.21C1475.459,199.574,1476.781,199.709,1478.066,200.756z"/>
<path fill-rule="evenodd" clip-rule="evenodd" fill="#596661" d="M663.215,15.315c5.058,0.051,10.117,0.15,15.174,0.15
	c200.628,0.014,401.255,0.018,601.882,0.025c0.92,0,1.842,0.048,2.762,0.075c0.034,1.907-0.383,3.748,0.384,5.727
	c0.903,2.334-0.618,3.141-2.854,2.842c-4.097-0.932-8.234-1.051-12.395-1.05c-190.426,0.011-380.853-0.18-571.279,0.238
	c-24.784,0.055-49.719,1.243-74.038,7.827c-33.376,9.037-60.01,26.983-77.032,57.482c-11.405,20.438-16.15,42.997-18.71,66.104
	c-1.349,12.184-1.366,24.372-1.374,36.584c-0.001,3.2,0.312,6.494-1.546,9.414c-2.407,1.986-4.84,2.064-7.299,0.099
	c-1-29.111,0.561-57.975,8.619-86.17c14.397-50.382,47.711-80.877,98.218-93.269C636.717,18.205,649.877,16.202,663.215,15.315z"/>
<path fill-rule="evenodd" clip-rule="evenodd" fill="#3B4341" d="M516.891,200.831c2.273-0.037,4.545-0.075,6.818-0.114
	c2.145-1.634,4.335-1.925,6.594-0.225c0.003,4.806,0.007,9.612,0.01,14.416c-2.211,1.666-4.395,1.508-6.557-0.097
	c-2.3-0.075-4.6-0.153-6.9-0.228C516.867,209.999,516.878,205.415,516.891,200.831z"/>
<path fill-rule="evenodd" clip-rule="evenodd" fill="#565656" d="M1282.916,23.907c-0.332-1.055-0.334-2.629-1.047-3.083
	c-4.728-3.004-0.646-3.845,1.164-5.261c4.631,0.027,9.263,0.054,13.894,0.082c5.825,3.071,12.471-0.423,19.385,2.358
	c-6.657,3.675-13.72-0.833-19.292,3.137c2.529,3.932,6.277,4.837,10.696,4.695c16.061-0.516,32.053,0.479,47.967,2.688
	c2.429,0.336,5.166,0.138,6.533,2.919c-4.675,5.988-11.03,3.535-16.932,3.376c-5.963-0.027-11.927-0.054-17.889-0.081
	c-2.404-1.225-4.987-0.623-7.479-0.625c-211.778-0.03-423.555-0.03-635.334,0c-2.491,0.002-5.074-0.601-7.478,0.626
	c-15.568-0.401-30.912,1.221-46.036,4.967c-4.691,1.162-8.863-1.474-13.319-2.072c0.665-4.339,4.578-4.1,7.411-4.852
	c18.583-4.929,37.594-7.07,56.753-7.08c195.125-0.103,390.252-0.057,585.379-0.096C1272.535,25.607,1277.911,26.323,1282.916,23.907
	z"/>
<path fill-rule="evenodd" clip-rule="evenodd" fill="#979797" d="M1463.232,168.983c0.057,8.064,0.159,16.128,0.159,24.19
	c0.008,535.219-0.006,1070.438,0.044,1605.656c0.003,27.294-1.457,54.304-11.561,80.104c-4.475,11.426-10.104,22.176-18.286,31.445
	c-4.411-2.783-1.657-6.014-0.228-8.746c7.078-13.527,12.746-27.531,15.787-42.563c2.74-13.547,4.697-27.209,4.698-41.012
	c0.068-548.4,0.095-1096.801-0.044-1645.202c-0.006-28.945-6.625-56.567-21.179-81.918c-2.744-4.78-6.28-9.094-8.972-13.909
	c-1.398-2.502-3.975-5.552,0.636-7.756c13.756,11.122,21.605,26.259,28.563,42.003c5.512,10.934,7.351,22.891,9.179,34.757
	C1463.191,153.584,1464.74,161.24,1463.232,168.983z"/>
<path fill-rule="evenodd" clip-rule="evenodd" fill="#7B8D87" d="M523.755,214.811c2.186,0.033,4.373,0.063,6.558,0.097
	c0.018,270.109,0.046,540.219,0.052,810.329c0.006,251.21-0.011,502.422-0.019,753.632c-2.209,0.039-4.416,0.081-6.624,0.119
	c-0.028-2.767-0.081-5.532-0.081-8.297c-0.003-515.632-0.003-1031.262,0.002-1546.893
	C523.645,220.803,523.717,217.808,523.755,214.811z"/>
<path fill-rule="evenodd" clip-rule="evenodd" fill="#656565" d="M1400.754,1932.764c26.3-25.27,40.659-56.16,44.42-92.389
	c1.266-12.214,1.196-24.373,1.196-36.56c0.047-540.355,0.014-1080.71,0.121-1621.067c0.005-27.895-2.843-55.053-15.048-80.562
	c-7.537-15.752-17.555-29.688-30.595-41.381c-3.624-1.461-5.407-4.481-6.715-7.913c-0.036-1.041,0.196-1.962,1.164-2.544
	c5.13,2.468,10.633,4.242,15.007,8.11c5.363,8.872,12.039,16.82,17.821,25.412c15.318,22.761,22.805,47.994,25.12,75.062
	c0.551,6.442,0.632,12.869,0.632,19.313c0.002,546.226,0.007,1092.451-0.011,1638.676c-0.003,38.657-9.865,74.165-34.13,104.96
	c-0.855,1.087-1.777,2.148-1.589,3.686c-1.999,1.797-3.821,3.865-6.039,5.334c-4.533,2.999-9.278,5.678-14.213,8.655
	C1397.146,1936.174,1399.988,1934.93,1400.754,1932.764z"/>
<path fill-rule="evenodd" clip-rule="evenodd" fill="#758580" d="M1474.087,214.807c1.327-0.043,2.653-0.085,3.979-0.127
	c2.133,3.388,1.348,7.17,1.348,10.802c0.027,516.472,0.027,1032.945,0.027,1549.416c0,1.384,0.002,2.766,0.002,4.149
	c-3.569,0.796-5.955,0.147-5.513-4.292c0.16-1.599,0.021-3.226,0.021-4.837c0.006-515.836,0.008-1031.672,0.02-1547.509
	C1473.971,219.876,1474.047,217.341,1474.087,214.807z"/>
<path fill-rule="evenodd" clip-rule="evenodd" fill="#848484" d="M1418.148,1925.566c-4.16-3.092-0.095-4.919,1.287-6.76
	c12.814-17.11,22.762-35.603,27.466-56.604c2.959-13.209,5.014-26.487,5.012-40.157c-0.1-548.836-0.146-1097.672,0.046-1646.508
	c0.014-39.935-11.087-75.39-36.75-106.141c-2.62-3.14-5.563-6.269-4.904-10.939c4.395,3.95,10.251,6.009,13.983,10.818
	c-3.489,3.031,0.005,5.069,1.318,6.963c13.385,19.315,22.768,40.28,26.837,63.515c1.938,11.064,3.489,22.187,3.491,33.435
	c0.026,546.992,0.054,1093.984-0.05,1640.976c-0.007,30.88-5.432,60.72-20.612,88.201c-1.272,2.302-4.357,4.693-1.684,8.015
	C1429.412,1916.428,1424.103,1921.325,1418.148,1925.566z"/>
<path fill-rule="evenodd" clip-rule="evenodd" fill="#616161" d="M583.166,1925.633c-21.166-16.5-31.364-39.373-37.158-64.648
	c-2.652-11.571-4.418-23.332-4.447-35.277c-0.005-1.802,0.174-3.709-1.234-5.208c-1.408-2.112-0.732-4.489-0.732-6.733
	c-0.034-545.981-0.034-1091.962,0-1637.944c0-2.236-0.693-4.612,0.756-6.709c1.396-10.156,2.315-20.404,4.276-30.449
	c5.442-27.882,16.09-53.121,38.527-71.97c1.441,2.587-0.18,4.373-1.664,6.146c-13.363,15.966-22.632,34.068-28.154,54.102
	c-3.066,11.122-4.896,22.57-5.328,33.991c-0.477,12.637-1.681,25.243-1.681,37.898c0.006,531.142-0.062,1062.286,0.209,1593.427
	c0.013,25.88,0.499,51.977,7.9,77.304c5.252,17.974,13.23,34.308,25.663,48.391C581.995,1920.104,584.866,1921.992,583.166,1925.633
	z"/>
<path fill-rule="evenodd" clip-rule="evenodd" fill="#3B3B3B" d="M684.147,1940.917c211.146,0,422.294,0.002,633.438,0.002
	c22.795-0.604,45.466,2.355,69.456,1.38c-5.933,4.764-16.733,8.118-25.079,8.387c-40.293,1.277-80.599,0.599-120.898,0.678
	c-49.539,0.097-99.08,0.146-148.619,0.002c-45.388-0.133-90.775-0.158-136.161-0.148c-42.392,0.008-84.791,0.104-127.185,0.1
	c-45.847-0.002-91.697,0.389-137.548-0.188c-15.65-0.196-31.314,0.864-46.963-0.423c-1.618-0.133-3.233,0.041-4.605,1.092
	c-8.522-2.727-17.688-3.444-25.606-9.271C637.635,1941.991,660.891,1941.453,684.147,1940.917z"/>
<path fill-rule="evenodd" clip-rule="evenodd" fill="#7E908A" d="M1282.916,23.907c0.103,2.369-0.493,4.093-3.375,3.989
	c-2.07-0.075-4.146,0.005-6.218,0.005c-197.383,0.002-394.762-0.047-592.142,0.081c-20.458,0.013-40.716,2.56-60.487,8.153
	c-1.04,0.295-1.966,0.991-2.945,1.499c-45.13,13.505-70.649,44.865-81.574,89.542c-5.9,24.129-6.083,48.706-5.871,73.318
	c-2.2,0.074-4.398,0.148-6.596,0.224c-0.808-29.266,0.615-58.253,9.214-86.555c14.318-47.121,46.549-74.669,93.556-86.091
	c15.402-3.741,31.073-5.584,46.987-5.814c199.516-2.885,399.042-0.411,598.562-1.244
	C1275.93,20.997,1279.946,20.453,1282.916,23.907z"/>
<path fill-rule="evenodd" clip-rule="evenodd" fill="#5B5B5B" d="M634.491,41.888c11.848-2.133,23.711-4.148,35.786-4.471
	c5.477-1.56,11.215,0.587,16.679-1.167c209.737-0.001,419.473-0.002,629.209-0.002c5.463,1.736,11.188-0.345,16.668,1.132
	c12.595-0.206,24.813,2.673,37.157,4.522c-0.017,3.909-3.062,4.142-5.756,4.567c-2.963,0.468-5.981,0.272-8.977,0.272
	c-235.347,0.005-470.693,0.005-706.04,0c-2.996,0-6.014,0.196-8.977-0.274C637.543,46.04,634.506,45.792,634.491,41.888z"/>
<path fill-rule="evenodd" clip-rule="evenodd" fill="#7D8F8A" d="M720.259,1974.015c0.051-2.16,0.104-4.32,0.155-6.479
	c59.445-0.029,118.891-0.063,178.335-0.093c144.004-0.076,288.01,0.146,432.011-0.468c30.705-0.131,60.136-7.591,86.292-24.958
	c24.927-16.552,40.052-40.059,48.56-68.259c7.321-24.275,8.905-49.212,8.465-74.389c-0.045-2.717-1.795-7.155,4.049-6.456
	c0.369,23.906-0.108,47.716-5.486,71.216c-5.914,25.835-16.62,49.338-35.343,68.187c-19.635,19.765-44.175,30.938-71.433,36.316
	c-21.015,4.147-42.245,5.507-63.615,5.506c-190.77-0.014-381.543-0.007-572.315-0.013
	C726.708,1974.124,723.484,1974.053,720.259,1974.015z"/>
<path fill-rule="evenodd" clip-rule="evenodd" fill="#797979" d="M583.166,1925.633c-2.836-6.41-8.56-10.591-12.477-16.212
	c-14.316-20.547-20.948-43.702-23.495-68.192c-2.688-25.854-2.825-51.821-2.824-77.797c0.041-523.019-0.045-1046.038,0.234-1569.058
	c0.016-28.301,1.068-56.844,12.057-83.823c5.686-13.96,13.305-26.639,22.847-38.227c1.438-1.745,3.608-2.988,3.646-5.631
	c6.614-5.674,12.815-12.002,21.861-13.836c1.795,5.067-1.803,6.532-5.357,8.027c-1.305,1.009-2.61,2.017-3.916,3.024
	c-24.026,18.537-36.764,43.671-42.503,72.862c-2.847,14.475-4.18,29.081-4.179,43.859c0.043,545.547-0.002,1091.095,0.153,1636.643
	c0.007,27.144,4.858,53.593,17.486,78.072c8.564,16.6,21.061,29.487,37.385,38.623c0.385,0.021,0.771,0.048,1.155,0.086
	c0.977,2.2,3.567,3.572,3.252,7.419C598.954,1937.44,590.595,1932.331,583.166,1925.633z"/>
<path fill-rule="evenodd" clip-rule="evenodd" fill="#4E4E4E" d="M639.984,1951.797c1.019-4.238,4.481-2.439,6.839-2.455
	c21.112-0.146,42.233,0.293,63.335-0.187c23.148-0.526,46.31-0.188,69.446-0.346c25.418-0.174,50.896,0.139,76.347,0.383
	c28.863,0.278,57.731,0.064,86.598,0.064c29.326,0,58.652,0,87.979,0c29.787,0,59.573,0,89.36,0c30.018,0,60.037,0,90.054,0
	c29.786,0,59.574,0,89.361,0c18.501,0,37.001-0.032,55.501,0.04c2.422,0.009,5.131-0.893,7.157,1.389
	c-7.548,3.006-15.702,3.529-23.515,3.778c-14.936,0.476-29.834,1.709-44.813,1.694c-183.936-0.169-367.871-0.096-551.807-0.125
	C707.825,1956.028,673.776,1956.941,639.984,1951.797z"/>
<path fill-rule="evenodd" clip-rule="evenodd" fill="#454545" d="M634.491,41.888c1.953,3.904,5.598,2.536,8.604,2.537
	c114.3,0.063,228.6,0.054,342.898,0.054c124.902,0.001,249.802,0.011,374.701-0.067c3.192-0.003,7.105,1.619,9.297-2.51
	c8.591,2.344,17.157,4.766,25.307,8.443c-0.076,0.825-0.153,1.646-0.229,2.467c-7.346,3.994-15.244,1.545-22.888,1.806
	c-2.442,0.083-5.009-0.258-7.515-0.445c-113.805-8.894-227.791-2.469-341.687-3.822c-93.511-1.109-187.045-0.307-280.569-0.182
	c-34.234,0.044-68.554-1.623-102.577,4.004c-9.192,1.078-18.417,0.755-27.634,0.609c-2.04-0.031-4.081-0.333-5.581-1.997
	c4.465-5.468,11.401-5.75,17.315-8.114C627.288,43.33,630.961,42.79,634.491,41.888z"/>
<path fill-rule="evenodd" clip-rule="evenodd" fill="#070707" d="M1463.232,168.983c-0.677-19.734-4.342-38.933-10.381-57.705
	c3.205-1.493,2.653,1.614,2.989,2.796c4.13,14.557,7.79,29.191,8.477,44.438c3.026,67.238,1.19,134.509,1.22,201.761
	c0.209,481.066,0.107,962.133,0.105,1443.197c0,6.161,0,12.321,0,18.481c-0.421-0.003-0.843-0.005-1.264-0.007
	c0-2.48,0-4.96,0-7.439c-0.002-545.607-0.004-1091.216-0.051-1636.823C1464.325,174.783,1465.266,171.666,1463.232,168.983z"/>
<path fill-rule="evenodd" clip-rule="evenodd" fill="#040404" d="M540.351,169.113c-0.025,544.7-0.052,1089.4-0.074,1634.099
	c0,5.764,0.032,11.524,0.05,17.288c-0.15,1.316-0.302,2.633-0.453,3.949c-0.334,0.004-0.668,0.012-1.002,0.018
	c0-2.046,0-4.093,0-6.142c-0.003-548.197-0.006-1096.397-0.008-1644.596c0-1.844,0.005-3.688,0.038-5.532
	c0.003-0.144,0.253-0.285,0.387-0.428C539.643,168.217,539.996,168.665,540.351,169.113z"/>
<path fill-rule="evenodd" clip-rule="evenodd" fill="#7F918B" d="M523.757,1793.115c2.189,0.039,4.378,0.078,6.566,0.119
	c-0.206,25.985,0,51.9,6.458,77.365c13.297,52.439,47.475,82.089,99.746,92.536c22.958,4.587,46.148,4.302,69.349,4.394
	c0.059,2.171,0.119,4.339,0.177,6.505c-31.513,0.025-62.922-0.874-93.24-10.945c-47.333-15.722-73.652-49.53-83.633-97.349
	C524.175,1841.772,523.118,1817.507,523.757,1793.115z"/>
<path fill-rule="evenodd" clip-rule="evenodd" fill="#7B8C87" d="M1361.955,31.984c-10.996-3.179-22.414-2.972-33.66-3.917
	c-8.176-0.688-16.471-0.442-24.683-0.048c-5.383,0.258-7.814-1.3-6.593-6.88c30.979,0.61,61.928,0.945,91.89,10.807
	c44.206,14.548,70.759,44.902,82.281,89.459c6.751,26.111,7.513,52.648,6.878,79.351c-1.327-0.053-2.652-0.106-3.979-0.159
	c0.22-26.005-0.206-51.947-7.033-77.315c-9.358-34.754-28.035-62.208-61.285-78.204c-3.889-1.871-8.02-3.238-12.039-4.839
	C1382.859,38.567,1372.164,36.21,1361.955,31.984z"/>
<path fill-rule="evenodd" clip-rule="evenodd" fill="#303030" d="M677.104,34.739c2.127-2.054,4.803-1.242,7.244-1.243
	c211.934-0.035,423.868-0.035,635.801,0.001c2.44,0.001,5.117-0.813,7.246,1.241c-143.742,0.026-287.483,0.065-431.225,0.074
	C823.148,34.817,750.126,34.764,677.104,34.739z"/>
<path fill-rule="evenodd" clip-rule="evenodd" fill="#1E1E1E" d="M606.619,52.784c11.074,0.41,22.227-1.084,33.215,1.386
	c-11.911,3.071-23.118,9.171-35.943,8.311c-1.6-0.107-3.236,0.04-4.233-1.598c1.123-3.118,5.88-3.811,5.357-8.027
	C605.549,52.832,606.083,52.808,606.619,52.784z"/>
<path fill-rule="evenodd" clip-rule="evenodd" fill="#434343" d="M1361.955,31.984c10.979,1.266,21.698,3.527,31.777,8.255
	c-3.23,2.632-6.57,2.904-10.724,1.872c-11.404-2.83-22.816-5.859-34.712-6.031c-1.01-0.016-2.009-0.823-3.013-1.264
	C1350.966,34.608,1356.545,33.782,1361.955,31.984z"/>
<path fill-rule="evenodd" clip-rule="evenodd" fill="#303030" d="M1332.832,37.38c-5.56-0.31-11.251,1.302-16.667-1.132
	C1321.717,36.657,1327.418,34.902,1332.832,37.38z"/>
<path fill-rule="evenodd" clip-rule="evenodd" fill="#303030" d="M686.955,36.25c-5.415,2.448-11.118,0.8-16.68,1.169
	C675.685,34.87,681.398,36.673,686.955,36.25z"/>
<path fill-rule="evenodd" clip-rule="evenodd" d="M1446.072,160.62c-1.635-31.241-9.234-60.572-28.295-86.03
	c-5.199-6.943-9.931-14.499-17.92-18.873c-13.803,0.649-26.143-5.621-39.251-8.188c-14.426-3.503-29.231-4.35-43.915-4.364
	c-211.113-0.215-422.227-0.215-633.341,0.003c-14.678,0.015-29.49,0.761-43.946,4.241c-13.868,2.563-26.682,10.447-41.486,8.151
	c-2.406-0.026-4.112,1.316-5.68,2.919c-3.605,5.056-8.199,9.313-11.631,14.485c-19.061,26.382-26.975,56.252-26.977,88.397
	c-0.046,552.36-0.033,1104.719-0.032,1657.079c0,2.536-0.119,5.078,0.028,7.607c2.057,35.146,13.104,66.738,36.959,93.263
	c2.932,3.902,6.15,7.499,10.218,10.246c0.73,0.307,1.408,0.224,2.037-0.254c6.39-1.993,13.047-2.889,19.458-1.23
	c17.839,4.615,35.871,7.157,54.301,6.823c1.803-0.033,3.729-0.336,5.149,1.272c4.185,3.55,9.243,2.257,13.942,2.261
	c201.852,0.066,403.702,0.059,605.553,0.057c2.305,0,4.611,0.057,6.912-0.078c2.526-0.146,5.115-0.152,7.031-2.239
	c2.105-2.089,4.788-1.288,7.211-1.252c10.104,0.158,20.11-0.559,30.03-2.551c15.153-3.045,30.278-6.481,45.927-4.351
	c2.646,0.39,4.416-1.187,5.901-2.943c3.868-4.577,8.156-8.775,11.769-13.583c20.888-27.807,29.977-59.553,29.983-93.833
	c0.12-550.962,0.086-1101.925,0.083-1652.886C1446.092,163.386,1446.143,162,1446.072,160.62z M1362.641,1916.09
	c-238.13,0.034-476.261,0.033-714.393,0c-40.618-0.006-70.815-30.127-70.818-70.669c-0.023-568.932-0.024-1137.863,0.002-1706.796
	c0.001-40.171,30.227-70.488,70.224-70.576c35.731-0.079,71.462-0.043,107.193,0.052c2.059,0.005,4.598-1.338,6.232,1.224
	c0.817,4.381-0.44,8.695-0.398,13.07c0.321,33.839,28.415,62.678,62.25,63.725c2.995,0.093,5.991,0.041,8.987,0.041
	c109.469,0.001,218.938-0.331,328.401,0.294c20.62,0.118,39.122-4.229,56.547-14.626c20.144-16.5,26.737-38.086,23.694-63.796
	c4.637,0,9.217,0,13.798,0c36.194,0,72.386-0.045,108.576,0.011c40.549,0.064,70.719,30.209,70.721,70.778
	c0.02,568.702,0.02,1137.404,0.003,1706.105C1433.66,1886.004,1403.672,1916.084,1362.641,1916.09z"/>
<path fill-rule="evenodd" clip-rule="evenodd" fill="#989898" d="M586.233,76.342c-19.285,26.662-27.487,56.839-28.315,89.35
	c-0.129,5.068-0.25,10.138-0.25,15.208c-0.012,542.56,0.005,1085.119-0.057,1627.68c-0.003,27.881,2.739,55.13,14.792,80.749
	c5.228,11.11,11.896,21.273,19.766,30.678c1.448,1.73,3.447,3.147,3.594,5.71c-3.482,2.504-5.71-0.411-7.808-2.173
	c-14.314-12.031-23.682-27.452-29.533-44.993c-7.336-21.996-9.74-44.659-10.131-67.863c-0.616-36.635-0.373-73.261-0.378-109.886
	c-0.074-502.65-0.069-1005.3,0.004-1507.949c0.002-25.305,1.111-50.538,9.351-74.898c4.783-14.139,11.701-27.018,21.05-38.591
	C580.228,76.995,582.227,73.726,586.233,76.342z"/>
<path fill-rule="evenodd" clip-rule="evenodd" fill="#11100C" d="M1214.267,133.174c-11.567,10.949-25.675,16.275-41.241,16.305
	c-117.439,0.221-234.879,0.28-352.317,0.03c-37.783-0.081-68.034-34.355-64.457-71.982c0.226-2.369-0.181-5.12,2.228-6.856
	c9.136,2.46,8.287,10.787,8.317,16.933c0.11,21.998,10.642,36.436,30.107,45.03c6.94,3.064,14.404,4.516,22.056,4.517
	c123.433,0.009,246.864,0,370.296,0.023C1197.824,137.176,1205.952,134.649,1214.267,133.174z"/>
<path fill-rule="evenodd" clip-rule="evenodd" fill="#7C7C7C" d="M586.233,76.342c-2.451-0.262-4.489,0.388-6.127,2.376
	c-14.662,17.788-23.361,38.359-27.299,60.835c-4.039,23.05-4.24,46.433-4.24,69.775c-0.011,529.23-0.066,1058.461,0.154,1587.693
	c0.012,27.852,1.122,55.88,11.011,82.556c6.318,17.047,15.342,32.254,29.85,43.756c1.913,1.518,3.692,2.687,6.181,2.382
	c3.228,2.294,5.904,5.141,8.322,8.25c-8.563-0.561-13.986-6.736-19.555-11.879c-19.214-17.741-28.201-40.892-33.207-65.913
	c-3.251-16.255-4.237-32.675-4.235-49.249c0.073-545.206-0.013-1090.413,0.263-1635.619c0.016-29.437,6.53-57.863,22.88-83.227
	c5.173-8.027,12.067-14.446,18.769-21.066c1.834-1.814,4.06-3.015,6.742-3.105C593.905,69.072,588.976,71.871,586.233,76.342z"/>
<path fill-rule="evenodd" clip-rule="evenodd" fill="#9E9D9D" d="M1003.29,83.203c16.562,0.001,33.128,0.267,49.68-0.134
	c6.328-0.153,9.247,2.913,9.688,8.243c0.395,4.779-1.449,8.954-7.057,10.344c-2.272,0.563-4.476,0.92-6.785,0.92
	c-31.582-0.007-63.166,0.026-94.748-0.024c-8.826-0.015-12.65-3.182-12.701-10.124c-0.044-6.065,2.953-9.167,9.361-9.198
	C968.25,83.147,985.771,83.201,1003.29,83.203z"/>
<path fill-rule="evenodd" clip-rule="evenodd" fill="#323333" d="M1119.74,89.826c0.24,6.647-6.776,13.997-13.5,14.135
	c-7.18,0.15-13.738-6.028-14.064-13.249c-0.305-6.719,6.396-13.921,13.319-14.315C1112.033,76.023,1119.496,83.059,1119.74,89.826z"
	/>
<path fill-rule="evenodd" clip-rule="evenodd" fill="#232323" d="M1364.666,54.172c10.021-2.971,20.277-0.702,30.402-1.361
	c1.928,2.666,3.852,5.331,5.78,7.995c-2.796,2.044-6.123,2.253-9.134,1.438C1382.635,59.785,1373.672,56.894,1364.666,54.172z"/>
<path fill-rule="evenodd" clip-rule="evenodd" fill="#EFF2F9" d="M1100.427,88.593c-0.704-3.74,2.434-4.657,5.374-4.712
	c3.117-0.056,5.721,1.449,5.701,5.303c-0.021,3.746-1.772,6.307-5.557,6.326C1102.084,95.529,1100.502,92.816,1100.427,88.593z"/>
</svg>
