<?xml version="1.0" encoding="utf-8"?>
<!-- Generator: Adobe Illustrator 16.0.0, SVG Export Plug-In . SVG Version: 6.00 Build 0)  -->
<!DOCTYPE svg PUBLIC "-//W3C//DTD SVG 1.1//EN" "http://www.w3.org/Graphics/SVG/1.1/DTD/svg11.dtd">
<svg version="1.1" id="图层_1" xmlns="http://www.w3.org/2000/svg" xmlns:xlink="http://www.w3.org/1999/xlink" x="0px" y="0px"
	 width="793.7px" height="793.7px" viewBox="0 0 793.7 793.7" enable-background="new 0 0 793.7 793.7" xml:space="preserve">
<g>
	<g>
		<path fill="#DD4412" d="M325.409,317C308.642,317,295,303.358,295,286.591s13.642-30.409,30.409-30.409
			s30.409,13.642,30.409,30.409S342.177,317,325.409,317z"/>
		<path fill="#DD4412" d="M325.409,258.182c15.69,0,28.409,12.719,28.409,28.409S341.099,315,325.409,315S297,302.281,297,286.591
			S309.719,258.182,325.409,258.182 M325.409,254.182c-17.871,0-32.409,14.539-32.409,32.409S307.539,319,325.409,319
			s32.409-14.539,32.409-32.409S343.28,254.182,325.409,254.182L325.409,254.182z"/>
	</g>
	<g>
		<path fill="#DD4412" d="M399.409,317C382.642,317,369,303.358,369,286.591s13.642-30.409,30.409-30.409
			s30.409,13.642,30.409,30.409S416.177,317,399.409,317z"/>
		<path fill="#DD4412" d="M399.409,258.182c15.69,0,28.409,12.719,28.409,28.409S415.1,315,399.409,315
			C383.719,315,371,302.281,371,286.591S383.719,258.182,399.409,258.182 M399.409,254.182c-17.871,0-32.409,14.539-32.409,32.409
			S381.539,319,399.409,319c17.87,0,32.409-14.539,32.409-32.409S417.279,254.182,399.409,254.182L399.409,254.182z"/>
	</g>
</g>
<g>
	<g>
		<path fill="#DD4412" d="M251.409,392C234.642,392,221,378.358,221,361.591s13.642-30.409,30.409-30.409
			s30.409,13.642,30.409,30.409S268.177,392,251.409,392z"/>
		<path fill="#DD4412" d="M251.409,333.182c15.69,0,28.409,12.719,28.409,28.409S267.099,390,251.409,390S223,377.281,223,361.591
			S235.719,333.182,251.409,333.182 M251.409,329.182c-17.871,0-32.409,14.539-32.409,32.409S233.539,394,251.409,394
			s32.409-14.539,32.409-32.409S269.28,329.182,251.409,329.182L251.409,329.182z"/>
	</g>
	<g>
		<path fill="#DD4412" d="M473.409,392C456.642,392,443,378.358,443,361.591s13.642-30.409,30.409-30.409
			s30.409,13.642,30.409,30.409S490.177,392,473.409,392z"/>
		<path fill="#DD4412" d="M473.409,333.182c15.69,0,28.409,12.719,28.409,28.409S489.1,390,473.409,390S445,377.281,445,361.591
			S457.719,333.182,473.409,333.182 M473.409,329.182c-17.87,0-32.409,14.539-32.409,32.409S455.539,394,473.409,394
			s32.409-14.539,32.409-32.409S491.279,329.182,473.409,329.182L473.409,329.182z"/>
	</g>
</g>
<g>
	<g>
		<path fill="#DD4412" d="M251.409,467C234.642,467,221,453.358,221,436.591s13.642-30.409,30.409-30.409
			s30.409,13.642,30.409,30.409S268.177,467,251.409,467z"/>
		<path fill="#DD4412" d="M251.409,408.182c15.69,0,28.409,12.719,28.409,28.409S267.099,465,251.409,465S223,452.281,223,436.591
			S235.719,408.182,251.409,408.182 M251.409,404.182c-17.871,0-32.409,14.539-32.409,32.409S233.539,469,251.409,469
			s32.409-14.539,32.409-32.409S269.28,404.182,251.409,404.182L251.409,404.182z"/>
	</g>
	<g>
		<path fill="#DD4412" d="M325.409,467C308.642,467,295,453.358,295,436.591s13.642-30.409,30.409-30.409
			s30.409,13.642,30.409,30.409S342.177,467,325.409,467z"/>
		<path fill="#DD4412" d="M325.409,408.182c15.69,0,28.409,12.719,28.409,28.409S341.099,465,325.409,465S297,452.281,297,436.591
			S309.719,408.182,325.409,408.182 M325.409,404.182c-17.871,0-32.409,14.539-32.409,32.409S307.539,469,325.409,469
			s32.409-14.539,32.409-32.409S343.28,404.182,325.409,404.182L325.409,404.182z"/>
	</g>
	<g>
		<path fill="#DD4412" d="M399.409,467C382.642,467,369,453.358,369,436.591s13.642-30.409,30.409-30.409
			s30.409,13.642,30.409,30.409S416.177,467,399.409,467z"/>
		<path fill="#DD4412" d="M399.409,408.182c15.69,0,28.409,12.719,28.409,28.409S415.1,465,399.409,465
			C383.719,465,371,452.281,371,436.591S383.719,408.182,399.409,408.182 M399.409,404.182c-17.871,0-32.409,14.539-32.409,32.409
			S381.539,469,399.409,469c17.87,0,32.409-14.539,32.409-32.409S417.279,404.182,399.409,404.182L399.409,404.182z"/>
	</g>
	<g>
		<path fill="#DD4412" d="M473.409,467C456.642,467,443,453.358,443,436.591s13.642-30.409,30.409-30.409
			s30.409,13.642,30.409,30.409S490.177,467,473.409,467z"/>
		<path fill="#DD4412" d="M473.409,408.182c15.69,0,28.409,12.719,28.409,28.409S489.1,465,473.409,465S445,452.281,445,436.591
			S457.719,408.182,473.409,408.182 M473.409,404.182c-17.87,0-32.409,14.539-32.409,32.409S455.539,469,473.409,469
			s32.409-14.539,32.409-32.409S491.279,404.182,473.409,404.182L473.409,404.182z"/>
	</g>
</g>
<g>
	<g>
		<path fill="#DD4412" d="M251.409,542C234.642,542,221,528.358,221,511.591s13.642-30.409,30.409-30.409
			s30.409,13.642,30.409,30.409S268.177,542,251.409,542z"/>
		<path fill="#DD4412" d="M251.409,483.182c15.69,0,28.409,12.719,28.409,28.409S267.099,540,251.409,540S223,527.281,223,511.591
			S235.719,483.182,251.409,483.182 M251.409,479.182c-17.871,0-32.409,14.539-32.409,32.409S233.539,544,251.409,544
			s32.409-14.539,32.409-32.409S269.28,479.182,251.409,479.182L251.409,479.182z"/>
	</g>
	<g>
		<path fill="#DD4412" d="M473.409,542C456.642,542,443,528.358,443,511.591s13.642-30.409,30.409-30.409
			s30.409,13.642,30.409,30.409S490.177,542,473.409,542z"/>
		<path fill="#DD4412" d="M473.409,483.182c15.69,0,28.409,12.719,28.409,28.409S489.1,540,473.409,540S445,527.281,445,511.591
			S457.719,483.182,473.409,483.182 M473.409,479.182c-17.87,0-32.409,14.539-32.409,32.409S455.539,544,473.409,544
			s32.409-14.539,32.409-32.409S491.279,479.182,473.409,479.182L473.409,479.182z"/>
	</g>
</g>
<g>
	<g>
		<path fill="#DD4412" d="M251.409,619C234.642,619,221,605.358,221,588.591s13.642-30.409,30.409-30.409
			s30.409,13.642,30.409,30.409S268.177,619,251.409,619z"/>
		<path fill="#DD4412" d="M251.409,560.182c15.69,0,28.409,12.719,28.409,28.409S267.099,617,251.409,617S223,604.281,223,588.591
			S235.719,560.182,251.409,560.182 M251.409,556.182c-17.871,0-32.409,14.539-32.409,32.409S233.539,621,251.409,621
			s32.409-14.539,32.409-32.409S269.28,556.182,251.409,556.182L251.409,556.182z"/>
	</g>
	<g>
		<path fill="#DD4412" d="M473.409,619C456.642,619,443,605.358,443,588.591s13.642-30.409,30.409-30.409
			s30.409,13.642,30.409,30.409S490.177,619,473.409,619z"/>
		<path fill="#DD4412" d="M473.409,560.182c15.69,0,28.409,12.719,28.409,28.409S489.1,617,473.409,617S445,604.281,445,588.591
			S457.719,560.182,473.409,560.182 M473.409,556.182c-17.87,0-32.409,14.539-32.409,32.409S455.539,621,473.409,621
			s32.409-14.539,32.409-32.409S491.279,556.182,473.409,556.182L473.409,556.182z"/>
	</g>
</g>
<circle fill="#BCBCBC" cx="176.409" cy="210.591" r="28.409"/>
<circle fill="#BCBCBC" cx="176.409" cy="286.591" r="28.409"/>
<circle fill="#BCBCBC" cx="176.409" cy="361.591" r="28.409"/>
<circle fill="#BCBCBC" cx="176.409" cy="436.591" r="28.409"/>
<circle fill="#BCBCBC" cx="176.409" cy="511.591" r="28.409"/>
<circle fill="#BCBCBC" cx="176.409" cy="588.591" r="28.409"/>
<circle fill="#BCBCBC" cx="251.409" cy="210.591" r="28.409"/>
<circle fill="#BCBCBC" cx="251.409" cy="286.591" r="28.409"/>
<circle fill="#BCBCBC" cx="325.409" cy="211.591" r="28.409"/>
<circle fill="#BCBCBC" cx="325.409" cy="361.591" r="28.409"/>
<circle fill="#BCBCBC" cx="325.409" cy="511.591" r="28.409"/>
<circle fill="#BCBCBC" cx="325.409" cy="588.591" r="28.409"/>
<circle fill="#BCBCBC" cx="399.409" cy="211.591" r="28.409"/>
<circle fill="#BCBCBC" cx="399.409" cy="361.591" r="28.409"/>
<circle fill="#BCBCBC" cx="399.409" cy="511.591" r="28.409"/>
<circle fill="#BCBCBC" cx="399.409" cy="588.591" r="28.409"/>
<circle fill="#BCBCBC" cx="460.409" cy="149.591" r="28.409"/>
<circle fill="#BCBCBC" cx="473.409" cy="286.591" r="28.409"/>
<circle fill="#BCBCBC" cx="668.409" cy="117.591" r="28.409"/>
<circle fill="#BCBCBC" cx="614.409" cy="291.591" r="28.409"/>
<circle fill="#BCBCBC" cx="551.409" cy="361.591" r="28.409"/>
<circle fill="#BCBCBC" cx="552.409" cy="436.591" r="28.409"/>
<circle fill="#BCBCBC" cx="552.409" cy="511.591" r="28.409"/>
<circle fill="#BCBCBC" cx="552.409" cy="588.591" r="28.409"/>
</svg>
