<?xml version="1.0" encoding="utf-8"?>
<!-- Generator: Adobe Illustrator 16.0.0, SVG Export Plug-In . SVG Version: 6.00 Build 0)  -->
<!DOCTYPE svg PUBLIC "-//W3C//DTD SVG 1.1//EN" "http://www.w3.org/Graphics/SVG/1.1/DTD/svg11.dtd">
<svg version="1.1" id="图层_1" xmlns="http://www.w3.org/2000/svg" xmlns:xlink="http://www.w3.org/1999/xlink" x="0px" y="0px"
	 width="1805px" height="662px" viewBox="0 0 1805 662" enable-background="new 0 0 1805 662" xml:space="preserve">
<g>
	<g>
		<linearGradient id="SVGID_1_" gradientUnits="userSpaceOnUse" x1="223.9092" y1="284" x2="223.9092" y2="223.1816">
			<stop  offset="0" style="stop-color:#CC3300"/>
			<stop  offset="0.1394" style="stop-color:#F76100"/>
		</linearGradient>
		<path fill="url(#SVGID_1_)" d="M223.909,284c-16.768,0-30.409-13.642-30.409-30.409s13.642-30.409,30.409-30.409
			s30.409,13.642,30.409,30.409S240.677,284,223.909,284z"/>
		<path fill="#F7F9F9" d="M223.909,225.182c15.69,0,28.409,12.719,28.409,28.409S239.599,282,223.909,282
			S195.5,269.281,195.5,253.591S208.219,225.182,223.909,225.182 M223.909,221.182c-17.871,0-32.409,14.539-32.409,32.409
			S206.039,286,223.909,286s32.409-14.539,32.409-32.409S241.78,221.182,223.909,221.182L223.909,221.182z"/>
	</g>
	<g>
		<linearGradient id="SVGID_2_" gradientUnits="userSpaceOnUse" x1="297.9092" y1="284" x2="297.9092" y2="223.1816">
			<stop  offset="0" style="stop-color:#CC3300"/>
			<stop  offset="0.1394" style="stop-color:#F76100"/>
		</linearGradient>
		<path fill="url(#SVGID_2_)" d="M297.909,284c-16.768,0-30.409-13.642-30.409-30.409s13.642-30.409,30.409-30.409
			s30.409,13.642,30.409,30.409S314.677,284,297.909,284z"/>
		<path fill="#F7F9F9" d="M297.909,225.182c15.69,0,28.409,12.719,28.409,28.409S313.599,282,297.909,282
			S269.5,269.281,269.5,253.591S282.219,225.182,297.909,225.182 M297.909,221.182c-17.871,0-32.409,14.539-32.409,32.409
			S280.039,286,297.909,286s32.409-14.539,32.409-32.409S315.78,221.182,297.909,221.182L297.909,221.182z"/>
	</g>
</g>
<g>
	<g>
		<linearGradient id="SVGID_3_" gradientUnits="userSpaceOnUse" x1="149.9092" y1="359" x2="149.9092" y2="298.1821">
			<stop  offset="0" style="stop-color:#CC3300"/>
			<stop  offset="0.5576" style="stop-color:#F76100"/>
		</linearGradient>
		<path fill="url(#SVGID_3_)" d="M149.909,359c-16.768,0-30.409-13.642-30.409-30.409s13.642-30.409,30.409-30.409
			s30.409,13.642,30.409,30.409S166.677,359,149.909,359z"/>
		<path fill="#F7F9F9" d="M149.909,300.182c15.69,0,28.409,12.719,28.409,28.409S165.599,357,149.909,357
			S121.5,344.281,121.5,328.591S134.219,300.182,149.909,300.182 M149.909,296.182c-17.871,0-32.409,14.539-32.409,32.409
			c0,17.87,14.539,32.409,32.409,32.409s32.409-14.539,32.409-32.409C182.318,310.72,167.78,296.182,149.909,296.182
			L149.909,296.182z"/>
	</g>
	<g>
		<linearGradient id="SVGID_4_" gradientUnits="userSpaceOnUse" x1="371.9092" y1="359" x2="371.9092" y2="298.1821">
			<stop  offset="0" style="stop-color:#CC3300"/>
			<stop  offset="0.5576" style="stop-color:#F76100"/>
		</linearGradient>
		<path fill="url(#SVGID_4_)" d="M371.909,359c-16.768,0-30.409-13.642-30.409-30.409s13.642-30.409,30.409-30.409
			s30.409,13.642,30.409,30.409S388.677,359,371.909,359z"/>
		<path fill="#F7F9F9" d="M371.909,300.182c15.69,0,28.409,12.719,28.409,28.409S387.599,357,371.909,357
			S343.5,344.281,343.5,328.591S356.219,300.182,371.909,300.182 M371.909,296.182c-17.871,0-32.409,14.539-32.409,32.409
			c0,17.87,14.539,32.409,32.409,32.409s32.409-14.539,32.409-32.409C404.318,310.72,389.78,296.182,371.909,296.182
			L371.909,296.182z"/>
	</g>
</g>
<g>
	<g>
		<linearGradient id="SVGID_5_" gradientUnits="userSpaceOnUse" x1="149.9092" y1="434" x2="149.9092" y2="373.1816">
			<stop  offset="0.3091" style="stop-color:#CC3300"/>
			<stop  offset="0.7939" style="stop-color:#EB5400"/>
		</linearGradient>
		<path fill="url(#SVGID_5_)" d="M149.909,434c-16.768,0-30.409-13.642-30.409-30.409s13.642-30.409,30.409-30.409
			s30.409,13.642,30.409,30.409S166.677,434,149.909,434z"/>
		<path fill="#F7F9F9" d="M149.909,375.182c15.69,0,28.409,12.719,28.409,28.409S165.599,432,149.909,432
			S121.5,419.281,121.5,403.591S134.219,375.182,149.909,375.182 M149.909,371.182c-17.871,0-32.409,14.539-32.409,32.409
			S132.039,436,149.909,436s32.409-14.539,32.409-32.409S167.78,371.182,149.909,371.182L149.909,371.182z"/>
	</g>
	<g>
		<linearGradient id="SVGID_6_" gradientUnits="userSpaceOnUse" x1="223.9092" y1="434" x2="223.9092" y2="373.1816">
			<stop  offset="0.3091" style="stop-color:#CC3300"/>
			<stop  offset="0.7939" style="stop-color:#EB5400"/>
		</linearGradient>
		<path fill="url(#SVGID_6_)" d="M223.909,434c-16.768,0-30.409-13.642-30.409-30.409s13.642-30.409,30.409-30.409
			s30.409,13.642,30.409,30.409S240.677,434,223.909,434z"/>
		<path fill="#F7F9F9" d="M223.909,375.182c15.69,0,28.409,12.719,28.409,28.409S239.599,432,223.909,432
			S195.5,419.281,195.5,403.591S208.219,375.182,223.909,375.182 M223.909,371.182c-17.871,0-32.409,14.539-32.409,32.409
			S206.039,436,223.909,436s32.409-14.539,32.409-32.409S241.78,371.182,223.909,371.182L223.909,371.182z"/>
	</g>
	<g>
		<linearGradient id="SVGID_7_" gradientUnits="userSpaceOnUse" x1="297.9092" y1="434" x2="297.9092" y2="373.1816">
			<stop  offset="0.3091" style="stop-color:#CC3300"/>
			<stop  offset="0.7939" style="stop-color:#EB5400"/>
		</linearGradient>
		<path fill="url(#SVGID_7_)" d="M297.909,434c-16.768,0-30.409-13.642-30.409-30.409s13.642-30.409,30.409-30.409
			s30.409,13.642,30.409,30.409S314.677,434,297.909,434z"/>
		<path fill="#F7F9F9" d="M297.909,375.182c15.69,0,28.409,12.719,28.409,28.409S313.599,432,297.909,432
			S269.5,419.281,269.5,403.591S282.219,375.182,297.909,375.182 M297.909,371.182c-17.871,0-32.409,14.539-32.409,32.409
			S280.039,436,297.909,436s32.409-14.539,32.409-32.409S315.78,371.182,297.909,371.182L297.909,371.182z"/>
	</g>
	<g>
		<linearGradient id="SVGID_8_" gradientUnits="userSpaceOnUse" x1="371.9092" y1="434" x2="371.9092" y2="373.1816">
			<stop  offset="0.3091" style="stop-color:#CC3300"/>
			<stop  offset="0.7939" style="stop-color:#EB5400"/>
		</linearGradient>
		<path fill="url(#SVGID_8_)" d="M371.909,434c-16.768,0-30.409-13.642-30.409-30.409s13.642-30.409,30.409-30.409
			s30.409,13.642,30.409,30.409S388.677,434,371.909,434z"/>
		<path fill="#F7F9F9" d="M371.909,375.182c15.69,0,28.409,12.719,28.409,28.409S387.599,432,371.909,432
			S343.5,419.281,343.5,403.591S356.219,375.182,371.909,375.182 M371.909,371.182c-17.871,0-32.409,14.539-32.409,32.409
			S354.039,436,371.909,436s32.409-14.539,32.409-32.409S389.78,371.182,371.909,371.182L371.909,371.182z"/>
	</g>
</g>
<g>
	<g>
		<linearGradient id="SVGID_9_" gradientUnits="userSpaceOnUse" x1="149.9092" y1="509" x2="149.9092" y2="448.1816">
			<stop  offset="0.1455" style="stop-color:#CC3300"/>
			<stop  offset="0.48" style="stop-color:#C93300"/>
		</linearGradient>
		<path fill="url(#SVGID_9_)" d="M149.909,509c-16.768,0-30.409-13.642-30.409-30.409s13.642-30.409,30.409-30.409
			s30.409,13.642,30.409,30.409S166.677,509,149.909,509z"/>
		<path fill="#F7F9F9" d="M149.909,450.182c15.69,0,28.409,12.719,28.409,28.409S165.599,507,149.909,507
			S121.5,494.281,121.5,478.591S134.219,450.182,149.909,450.182 M149.909,446.182c-17.871,0-32.409,14.539-32.409,32.409
			S132.039,511,149.909,511s32.409-14.539,32.409-32.409S167.78,446.182,149.909,446.182L149.909,446.182z"/>
	</g>
	<g>
		<linearGradient id="SVGID_10_" gradientUnits="userSpaceOnUse" x1="371.9092" y1="509" x2="371.9092" y2="448.1816">
			<stop  offset="0.1455" style="stop-color:#CC3300"/>
			<stop  offset="0.48" style="stop-color:#C93300"/>
		</linearGradient>
		<path fill="url(#SVGID_10_)" d="M371.909,509c-16.768,0-30.409-13.642-30.409-30.409s13.642-30.409,30.409-30.409
			s30.409,13.642,30.409,30.409S388.677,509,371.909,509z"/>
		<path fill="#F7F9F9" d="M371.909,450.182c15.69,0,28.409,12.719,28.409,28.409S387.599,507,371.909,507
			S343.5,494.281,343.5,478.591S356.219,450.182,371.909,450.182 M371.909,446.182c-17.871,0-32.409,14.539-32.409,32.409
			S354.039,511,371.909,511s32.409-14.539,32.409-32.409S389.78,446.182,371.909,446.182L371.909,446.182z"/>
	</g>
</g>
<g>
	<g>
		<linearGradient id="SVGID_11_" gradientUnits="userSpaceOnUse" x1="149.9092" y1="586" x2="149.9092" y2="525.1816">
			<stop  offset="0.7394" style="stop-color:#CC3300"/>
			<stop  offset="0.9273" style="stop-color:#CC3300"/>
		</linearGradient>
		<path fill="url(#SVGID_11_)" d="M149.909,586c-16.768,0-30.409-13.642-30.409-30.409s13.642-30.409,30.409-30.409
			s30.409,13.642,30.409,30.409S166.677,586,149.909,586z"/>
		<path fill="#F7F9F9" d="M149.909,527.182c15.69,0,28.409,12.719,28.409,28.409S165.599,584,149.909,584
			S121.5,571.281,121.5,555.591S134.219,527.182,149.909,527.182 M149.909,523.182c-17.871,0-32.409,14.539-32.409,32.409
			S132.039,588,149.909,588s32.409-14.539,32.409-32.409S167.78,523.182,149.909,523.182L149.909,523.182z"/>
	</g>
	<g>
		<linearGradient id="SVGID_12_" gradientUnits="userSpaceOnUse" x1="371.9092" y1="586" x2="371.9092" y2="525.1816">
			<stop  offset="0.7394" style="stop-color:#CC3300"/>
			<stop  offset="0.9273" style="stop-color:#CC3300"/>
		</linearGradient>
		<path fill="url(#SVGID_12_)" d="M371.909,586c-16.768,0-30.409-13.642-30.409-30.409s13.642-30.409,30.409-30.409
			s30.409,13.642,30.409,30.409S388.677,586,371.909,586z"/>
		<path fill="#F7F9F9" d="M371.909,527.182c15.69,0,28.409,12.719,28.409,28.409S387.599,584,371.909,584
			S343.5,571.281,343.5,555.591S356.219,527.182,371.909,527.182 M371.909,523.182c-17.871,0-32.409,14.539-32.409,32.409
			S354.039,588,371.909,588s32.409-14.539,32.409-32.409S389.78,523.182,371.909,523.182L371.909,523.182z"/>
	</g>
</g>
<g opacity="0.52">
	<circle fill="#C1DBDB" cx="74.909" cy="177.591" r="28.409"/>
	<circle fill="#C1DBDB" cx="74.909" cy="253.591" r="28.409"/>
	<circle fill="#C1DBDB" cx="74.909" cy="328.591" r="28.409"/>
	<circle fill="#C1DBDB" cx="74.909" cy="403.591" r="28.409"/>
	<circle fill="#C1DBDB" cx="74.909" cy="478.591" r="28.409"/>
	<circle fill="#C1DBDB" cx="74.909" cy="555.591" r="28.409"/>
	<circle fill="#C1DBDB" cx="149.909" cy="177.591" r="28.409"/>
	<circle fill="#C1DBDB" cx="149.909" cy="253.591" r="28.409"/>
	<circle fill="#C1DBDB" cx="223.909" cy="178.591" r="28.409"/>
	<circle fill="#C1DBDB" cx="223.909" cy="328.591" r="28.409"/>
	<circle fill="#C1DBDB" cx="223.909" cy="478.591" r="28.409"/>
	<circle fill="#C1DBDB" cx="223.909" cy="555.591" r="28.409"/>
	<circle fill="#C1DBDB" cx="297.909" cy="178.591" r="28.409"/>
	<circle fill="#C1DBDB" cx="297.909" cy="328.591" r="28.409"/>
	<circle fill="#C1DBDB" cx="297.909" cy="478.591" r="28.409"/>
	<circle fill="#C1DBDB" cx="297.909" cy="555.591" r="28.409"/>
	<circle fill="#C1DBDB" cx="358.909" cy="116.591" r="28.409"/>
	<circle fill="#C1DBDB" cx="371.909" cy="253.591" r="28.409"/>
	<circle fill="#C1DBDB" cx="566.909" cy="84.591" r="28.409"/>
	<circle fill="#C1DBDB" cx="512.909" cy="258.591" r="28.409"/>
	<circle fill="#C1DBDB" cx="449.909" cy="328.591" r="28.409"/>
	<circle fill="#C1DBDB" cx="450.909" cy="403.591" r="28.409"/>
	<circle fill="#C1DBDB" cx="450.909" cy="478.591" r="28.409"/>
	<circle fill="#C1DBDB" cx="450.909" cy="555.591" r="28.409"/>
</g>
<g>
	<g>
		<path fill="#800000018000000180000001" stroke="#F7F9F9" stroke-width="4" stroke-miterlimit="10" d="M617.684,582.928V391.795
			c0.648-18.319,3.945-34.248,9.887-47.783c5.942-13.535,13.572-24.507,22.892-32.915c9.318-8.408,19.4-14.561,30.246-18.457
			c10.845-3.896,21.755-5.845,32.73-5.845c22.405,0,41.124,5.47,56.158,16.406c15.034,10.938,26.058,24.439,33.071,40.503
			c7.014,16.065,10.521,31.548,10.521,46.45c0,10.938-1.446,22.199-4.334,33.787c-2.891,11.586-7.793,22.66-14.709,33.223
			c-6.916,10.561-16.35,19.448-28.298,26.66c-11.95,7.213-26.496,11.535-43.641,12.971c-9.741,0-18.655-0.889-26.74-2.666
			c-8.085-1.777-17.648-5.775-28.688-11.997v-38.657c1.428,0.684,5.665,2.855,12.712,6.512c7.045,3.657,12.289,6.188,15.732,7.588
			c3.441,1.401,6.916,2.409,10.423,3.024s7.696,0.923,12.566,0.923c12.274-0.272,22.924-3.554,31.951-9.844
			c9.026-6.289,15.942-14.799,20.749-25.532c4.805-10.731,7.208-22.729,7.208-35.991c0-13.877-3.068-26.061-9.205-36.555
			c-6.137-10.493-14.125-18.509-23.963-24.046c-9.839-5.537-20.084-8.306-30.734-8.306c-10.001,0-19.71,2.855-29.126,8.562
			c-9.417,5.708-17.161,14.579-23.233,26.609c-6.073,12.032-9.108,26.763-9.108,44.194v182.314H617.684z"/>
		<path fill="#800000018000000180000001" stroke="#F7F9F9" stroke-width="4" stroke-miterlimit="10" d="M858.268,389.231
			c0.259-19.277,5.163-36.743,14.709-52.397c9.546-15.653,21.95-27.907,37.212-36.76c15.26-8.852,30.911-13.279,46.952-13.279
			c16.624,0.343,32.634,4.512,48.024,12.51s28.006,19.79,37.844,35.376c9.84,15.586,14.758,34.078,14.758,55.474
			c0,16.134-3.604,32.283-10.813,48.449c-7.208,16.168-17.939,29.721-32.194,40.657c-14.255,10.938-31.06,16.781-50.411,17.534
			c-16.041,0-30.604-2.786-43.689-8.357c-13.086-5.57-24.353-13.33-33.801-23.275c-9.449-9.947-16.643-21.227-21.577-33.838
			c-4.936-12.613-7.566-26.062-7.89-40.35c0.39-0.342,0.633-0.683,0.73-1.025C858.22,389.607,858.268,389.369,858.268,389.231z
			 M894.895,388.411c0,19.552,5.098,36.624,15.294,51.218c10.194,14.596,26.656,21.893,49.387,21.893
			c11.754,0,22.211-2.461,31.367-7.383s16.397-12.971,21.723-24.148c5.324-11.176,7.988-25.583,7.988-43.22
			c-0.779-19.482-6.965-35.136-18.557-46.963c-11.592-11.826-26.287-17.739-44.08-17.739c-13.897,0.274-25.538,3.727-34.922,10.356
			c-9.385,6.632-16.35,14.954-20.895,24.968C897.655,367.408,895.219,377.747,894.895,388.411z"/>
		<path fill="#800000018000000180000001" stroke="#F7F9F9" stroke-width="4" stroke-miterlimit="10" d="M1111.613,290.999h33.418
			v23.481c4.545-7.998,11.088-14.612,19.627-19.841c8.537-5.229,18.619-7.844,30.244-7.844h10.811v35.273h-8.377
			c-17.924,0-30.719,6.87-38.381,20.61s-11.754,28.438-12.273,44.092v105.82h-35.068V290.999z"/>
		<path fill="#800000018000000180000001" stroke="#F7F9F9" stroke-width="4" stroke-miterlimit="10" d="M1251.669,429.632V239.729
			h34.678v51.27h68.676v35.273h-68.676v110.435c0,5.605,2.144,10.443,6.43,14.51c4.286,4.067,10.521,6.101,18.703,6.101h43.543
			v35.273H1310.7c-13.703,0-25.003-2.871-33.899-8.613c-8.898-5.742-15.311-13.382-19.239-22.917
			C1253.632,451.523,1251.669,441.049,1251.669,429.632z"/>
		<path fill="#800000018000000180000001" stroke="#F7F9F9" stroke-width="4" stroke-miterlimit="10" d="M1555.279,492.591V376.209
			c-0.521-10.186-3.346-19.396-8.475-27.635c-5.132-8.236-12.356-14.714-21.675-19.431c-9.319-4.717-20.278-7.075-32.876-7.075
			c-8.833,0-18.021,2.153-27.568,6.46c-9.546,4.307-17.714,11.571-24.499,21.79c-6.787,10.22-10.311,23.498-10.569,39.836
			c0,14.629,2.938,27.344,8.816,38.145c5.876,10.802,13.638,19.039,23.281,24.712c9.644,5.675,19.823,8.511,30.539,8.511
			c18.442,0,34.808-9.398,49.096-28.198v44.604c-7.599,5.06-13.103,8.58-16.512,10.562c-3.409,1.983-7.988,3.794-13.735,5.435
			s-13.102,2.598-22.063,2.871c-15.766,0-30.913-4.374-45.444-13.125c-14.533-8.75-26.34-21.242-35.422-37.479
			c-9.083-16.234-13.624-34.914-13.624-56.037c0-19.004,3.845-36.35,11.537-52.039c7.691-15.688,19.131-28.163,34.321-37.426
			c15.188-9.262,33.428-13.894,54.719-13.894c15.254,0,28.966,2.479,41.137,7.434c12.17,4.957,22.312,11.725,30.426,20.303
			c8.112,8.58,14.231,18.423,18.353,29.531c4.122,11.109,6.184,22.815,6.184,35.12v113.408H1555.279z"/>
		<path fill="#800000018000000180000001" stroke="#F7F9F9" stroke-width="4" stroke-miterlimit="10" d="M1657.051,198.201h35.068
			v294.39h-35.068V198.201z"/>
	</g>
	<g>
		<path fill="#FFFFFF" d="M617.684,582.928V391.795c0.648-18.319,3.945-34.248,9.887-47.783
			c5.942-13.535,13.572-24.507,22.892-32.915c9.318-8.408,19.4-14.561,30.246-18.457c10.845-3.896,21.755-5.845,32.73-5.845
			c22.405,0,41.124,5.47,56.158,16.406c15.034,10.938,26.058,24.439,33.071,40.503c7.014,16.065,10.521,31.548,10.521,46.45
			c0,10.938-1.446,22.199-4.334,33.787c-2.891,11.586-7.793,22.66-14.709,33.223c-6.916,10.561-16.35,19.448-28.298,26.66
			c-11.95,7.213-26.496,11.535-43.641,12.971c-9.741,0-18.655-0.889-26.74-2.666c-8.085-1.777-17.648-5.775-28.688-11.997v-38.657
			c1.428,0.684,5.665,2.855,12.712,6.512c7.045,3.657,12.289,6.188,15.732,7.588c3.441,1.401,6.916,2.409,10.423,3.024
			s7.696,0.923,12.566,0.923c12.274-0.272,22.924-3.554,31.951-9.844c9.026-6.289,15.942-14.799,20.749-25.532
			c4.805-10.731,7.208-22.729,7.208-35.991c0-13.877-3.068-26.061-9.205-36.555c-6.137-10.493-14.125-18.509-23.963-24.046
			c-9.839-5.537-20.084-8.306-30.734-8.306c-10.001,0-19.71,2.855-29.126,8.562c-9.417,5.708-17.161,14.579-23.233,26.609
			c-6.073,12.032-9.108,26.763-9.108,44.194v182.314H617.684z"/>
		<path fill="#FFFFFF" d="M858.268,389.231c0.259-19.277,5.163-36.743,14.709-52.397c9.546-15.653,21.95-27.907,37.212-36.76
			c15.26-8.852,30.911-13.279,46.952-13.279c16.624,0.343,32.634,4.512,48.024,12.51s28.006,19.79,37.844,35.376
			c9.84,15.586,14.758,34.078,14.758,55.474c0,16.134-3.604,32.283-10.813,48.449c-7.208,16.168-17.939,29.721-32.194,40.657
			c-14.255,10.938-31.06,16.781-50.411,17.534c-16.041,0-30.604-2.786-43.689-8.357c-13.086-5.57-24.353-13.33-33.801-23.275
			c-9.449-9.947-16.643-21.227-21.577-33.838c-4.936-12.613-7.566-26.062-7.89-40.35c0.39-0.342,0.633-0.683,0.73-1.025
			C858.22,389.607,858.268,389.369,858.268,389.231z M894.895,388.411c0,19.552,5.098,36.624,15.294,51.218
			c10.194,14.596,26.656,21.893,49.387,21.893c11.754,0,22.211-2.461,31.367-7.383s16.397-12.971,21.723-24.148
			c5.324-11.176,7.988-25.583,7.988-43.22c-0.779-19.482-6.965-35.136-18.557-46.963c-11.592-11.826-26.287-17.739-44.08-17.739
			c-13.897,0.274-25.538,3.727-34.922,10.356c-9.385,6.632-16.35,14.954-20.895,24.968
			C897.655,367.408,895.219,377.747,894.895,388.411z"/>
		<path fill="#FFFFFF" d="M1111.613,290.999h33.418v23.481c4.545-7.998,11.088-14.612,19.627-19.841
			c8.537-5.229,18.619-7.844,30.244-7.844h10.811v35.273h-8.377c-17.924,0-30.719,6.87-38.381,20.61s-11.754,28.438-12.273,44.092
			v105.82h-35.068V290.999z"/>
		<path fill="#FFFFFF" d="M1251.669,429.632V239.729h34.678v51.27h68.676v35.273h-68.676v110.435c0,5.605,2.144,10.443,6.43,14.51
			c4.286,4.067,10.521,6.101,18.703,6.101h43.543v35.273H1310.7c-13.703,0-25.003-2.871-33.899-8.613
			c-8.898-5.742-15.311-13.382-19.239-22.917C1253.632,451.523,1251.669,441.049,1251.669,429.632z"/>
		<path fill="#FFFFFF" d="M1555.279,492.591V376.209c-0.521-10.186-3.346-19.396-8.475-27.635
			c-5.132-8.236-12.356-14.714-21.675-19.431c-9.319-4.717-20.278-7.075-32.876-7.075c-8.833,0-18.021,2.153-27.568,6.46
			c-9.546,4.307-17.714,11.571-24.499,21.79c-6.787,10.22-10.311,23.498-10.569,39.836c0,14.629,2.938,27.344,8.816,38.145
			c5.876,10.802,13.638,19.039,23.281,24.712c9.644,5.675,19.823,8.511,30.539,8.511c18.442,0,34.808-9.398,49.096-28.198v44.604
			c-7.599,5.06-13.103,8.58-16.512,10.562c-3.409,1.983-7.988,3.794-13.735,5.435s-13.102,2.598-22.063,2.871
			c-15.766,0-30.913-4.374-45.444-13.125c-14.533-8.75-26.34-21.242-35.422-37.479c-9.083-16.234-13.624-34.914-13.624-56.037
			c0-19.004,3.845-36.35,11.537-52.039c7.691-15.688,19.131-28.163,34.321-37.426c15.188-9.262,33.428-13.894,54.719-13.894
			c15.254,0,28.966,2.479,41.137,7.434c12.17,4.957,22.312,11.725,30.426,20.303c8.112,8.58,14.231,18.423,18.353,29.531
			c4.122,11.109,6.184,22.815,6.184,35.12v113.408H1555.279z"/>
		<path fill="#FFFFFF" d="M1657.051,198.201h35.068v294.39h-35.068V198.201z"/>
	</g>
</g>
</svg>
